<?xml version="1.0" encoding="utf-8"?>
<!-- Generator: Adobe Illustrator 25.0.0, SVG Export Plug-In . SVG Version: 6.00 Build 0)  -->
<svg version="1.1" id="Layer_1" xmlns="http://www.w3.org/2000/svg" xmlns:xlink="http://www.w3.org/1999/xlink" x="0px" y="0px"
	 viewBox="0 0 2502.99 589.61" style="enable-background:new 0 0 2502.99 589.61;" xml:space="preserve">
<style type="text/css">
	.st0{fill:#010202;}
</style>
<g>
	<g>
		<path class="st0" d="M271.43,218.37c-0.75,25.25-0.75,51.25-0.75,77.5v39.75c0,28-0.5,40.75-3,53.5
			c-4.75,25-25.75,37.25-46.5,37.25c-9.25,0-19-2.5-21.25-12c1.5-9,7.25-12,15-12c6.25,0,11.5,2,18.5,7.25l8.25,6.25l-2,2.75
			l-2,0.25l-0.5-2c9.5-7.25,12.75-16.5,12.75-32.25c0-15-1.25-41-2.5-166.25H271.43z M221.93,218.37h72.5v10l-32.5,3.75h-5l-35-3.75
			V218.37z"/>
		<path class="st0" d="M313.18,375.87l26.25-3.75h5l28.75,3.75v10h-60V375.87z M328.93,226.12l15.5,6l-30-3.75v-10h37.5
			l103.75,142.75v26.5h-8L328.93,226.12z M334.43,218.37l12.5,10v157.5h-12.5V218.37z M416.93,218.37h60v10l-25,3.75h-5l-30-3.75
			V218.37z M443.18,218.37h12.5v169.25l-12.5-12.5V218.37z"/>
		<path class="st0" d="M581.67,232.12l-32.5-3.75v-10h67.5v10l-30,3.75H581.67z M667.42,218.37h8l45.25,140.25h-6.25l38.75-140.25
			h12.5l-45.5,169.25h-10l-48-142.75h8l-45,142.75h-9.75l-48.75-169.25h23.25l37.75,140.25h-7L667.42,218.37z M669.67,232.12
			l-32-3.75v-10h67.5v10l-30.5,3.75H669.67z M752.42,232.12l-26.25-3.75v-10h57v10l-25.75,3.75H752.42z"/>
		<path class="st0" d="M900.42,311.87c0,5.75-0.75,10.75-1.75,14h-92.25v-10.5h59.5c12,0,14.75-5.75,14.75-12.75
			c0-14.25-12-27.25-27.75-27.25c-16,0-34.5,13.5-34.5,49.25c0,31.75,16,48.75,41,48.75c16,0,26-7.25,35-17.75l5.75,4.5
			c-9,17.75-25,29-47.75,29c-33.5,0-55.25-23.25-55.25-61.25c0-38.25,26-63.75,57-63.75C879.92,264.12,900.42,281.62,900.42,311.87z
			"/>
		<path class="st0" d="M920.42,377.12l27-5l-8.25,13.75c0.5-11.25,0.75-37,0.75-52.5v-110l-20.75-2.5v-8.75l37.5-11.25l3.5,2
			l-1,35.5v48l0.75,3.25v76.5l-2.5,22.25l-37-2.5V377.12z M1023.92,327.62c0-32.25-13.25-49.75-32.25-49.75c-9,0-21.25,4-39.5,22.25
			l-2.25-4.5c14.5-22,30.75-31.5,47.75-31.5c26.5,0,47.5,22.75,47.5,61.25s-22,63.75-51.25,63.75c-15.25,0-30.75-6.75-44-32.75
			l2.25-4c13,16.5,26.5,23,38.25,23C1008.42,375.37,1023.92,359.87,1023.92,327.62z"/>
		<path class="st0" d="M1126.42,228.37v-10h35v13.75h-2.5L1126.42,228.37z M1161.42,372.12v13.75h-35v-10l32.5-3.75H1161.42z
			 M1150.17,295.87c0-25.75,0-51.75-0.75-77.5h24c-0.75,25.25-0.75,51.25-0.75,77.5v9.5c0,28.75,0,54.75,0.75,80.5h-24
			c0.75-25.25,0.75-51.25,0.75-80.5V295.87z M1161.42,374.37h32.25c39.25,0,60.75-26.5,60.75-72c0-47.25-21.5-72.5-58.5-72.5h-34.5
			v-11.5h38.75c47.5,0,80.5,29.5,80.5,84c0,54-37,83.5-85.5,83.5h-33.75V374.37z"/>
		<path class="st0" d="M1407.42,311.87c0,5.75-0.75,10.75-1.75,14h-92.25v-10.5h59.5c12,0,14.75-5.75,14.75-12.75
			c0-14.25-12-27.25-27.75-27.25c-16,0-34.5,13.5-34.5,49.25c0,31.75,16,48.75,41,48.75c16,0,26-7.25,35-17.75l5.75,4.5
			c-9,17.75-25,29-47.75,29c-33.5,0-55.25-23.25-55.25-61.25c0-38.25,26-63.75,57-63.75
			C1386.92,264.12,1407.42,281.62,1407.42,311.87z"/>
		<path class="st0" d="M1444.41,281.12l-24.5-4.25v-9.5h60v9.5l-30.5,4.25H1444.41z M1452.41,267.37l39,101.75l-10.25,13
			l40.25-114.75h13.5l-45.5,120h-10.25l-50.5-120H1452.41z M1520.91,281.12l-25-4.25v-9.5h47.5v9.5l-17.5,4.25H1520.91z"/>
		<path class="st0" d="M1660.66,311.87c0,5.75-0.75,10.75-1.75,14h-92.25v-10.5h59.5c12,0,14.75-5.75,14.75-12.75
			c0-14.25-12-27.25-27.75-27.25c-16,0-34.5,13.5-34.5,49.25c0,31.75,16,48.75,41,48.75c16,0,26-7.25,35-17.75l5.75,4.5
			c-9,17.75-25,29-47.75,29c-33.5,0-55.25-23.25-55.25-61.25c0-38.25,26-63.75,57-63.75
			C1640.16,264.12,1660.66,281.62,1660.66,311.87z"/>
		<path class="st0" d="M1717.66,200.87l3.5,2l-1,35.5v95c0,17.5,0.25,35,0.75,52.5h-21.5c0.5-17.5,0.75-35,0.75-52.5v-110
			l-20.75-2.5v-8.75L1717.66,200.87z M1740.91,377.12v8.75h-61.5v-8.75l28.25-5h5L1740.91,377.12z"/>
		<path class="st0" d="M1758.66,327.12c0-41.5,28.25-63,57-63c28.25,0,57,21.5,57,63s-28.75,62-57,62
			C1786.91,389.12,1758.66,368.62,1758.66,327.12z M1850.16,327.12c0-33.5-12.75-51.75-34.5-51.75c-22.25,0-34.5,18.25-34.5,51.75
			s12.25,50.75,34.5,50.75C1837.41,377.87,1850.16,360.62,1850.16,327.12z"/>
		<path class="st0" d="M1956.9,437.12v8.75h-64v-8.75l28.25-5h5L1956.9,437.12z M1913.9,321.62c0-13.75-0.25-21.5-0.75-31.5
			l-20-2.25v-8.75l34-15l3.75,2.5l2,21.25l1,0.5v78l-0.75,1.5v25c0,17.5,0.25,35.5,0.75,53h-20.75c0.5-17.5,0.75-35,0.75-52.5
			V321.62z M1964.9,277.87c-9.25,0-21.75,4.5-40,22.25l-2.25-4.5c14.5-22,30.75-31.5,47.75-31.5c26.5,0,47.5,23.5,47.5,62
			s-22,63-51.25,63c-15.25,0-30.75-7-44-33l2.25-4c13,16.5,25,23.25,37.25,23.25c19,0,34.5-14.75,34.5-47
			S1983.4,277.87,1964.9,277.87z"/>
		<path class="st0" d="M2144.15,311.87c0,5.75-0.75,10.75-1.75,14h-92.25v-10.5h59.5c12,0,14.75-5.75,14.75-12.75
			c0-14.25-12-27.25-27.75-27.25c-16,0-34.5,13.5-34.5,49.25c0,31.75,16,48.75,41,48.75c16,0,26-7.25,35-17.75l5.75,4.5
			c-9,17.75-25,29-47.75,29c-33.5,0-55.25-23.25-55.25-61.25c0-38.25,26-63.75,57-63.75
			C2123.65,264.12,2144.15,281.62,2144.15,311.87z"/>
		<path class="st0" d="M2186.15,333.37v-11.75c0-13.75-0.25-21.5-0.75-31.5l-20-2.25v-8.75l34-15l3.75,2.5l3,31.25v35.5
			c0,15.5,0.25,41.25,0.75,52.5h-21.5C2185.9,374.62,2186.15,348.87,2186.15,333.37z M2167.4,377.12l27.5-5h5l27.5,5v8.75h-60
			V377.12z M2196.15,299.62h14.25l-6.25,1.75c8-23.25,23.25-37.25,38-37.25c7.25,0,14.75,3.5,17.75,8.5
			c0,11.75-4.5,18.25-14.5,18.25c-5.75,0-10.5-2.25-15-6l-6.75-5.75l12.25-2.5c-15.5,8-24.5,20.5-30.25,39.75h-9.5V299.62z"/>
		<path class="st0" d="M2340.15,280.62c0-9.75,7.75-17.75,17.5-17.75s17.5,8,17.5,17.75c0,9.5-7.75,17.5-17.5,17.5
			S2340.15,290.12,2340.15,280.62z M2340.15,371.62c0-9.75,7.75-17.75,17.5-17.75s17.5,8,17.5,17.75c0,9.5-7.75,17.5-17.5,17.5
			S2340.15,381.12,2340.15,371.62z"/>
	</g>
</g>
</svg>
