<?xml version="1.0" encoding="utf-8"?>
<!-- Generator: Adobe Illustrator 25.0.0, SVG Export Plug-In . SVG Version: 6.00 Build 0)  -->
<svg version="1.1" id="Layer_1" xmlns="http://www.w3.org/2000/svg" xmlns:xlink="http://www.w3.org/1999/xlink" x="0px" y="0px"
	 viewBox="0 0 700 550" style="enable-background:new 0 0 700 550;" xml:space="preserve">
<style type="text/css">
	.st0{fill:#FFFFFF;}
</style>
<path d="M412.9,262l26.1,10.9c-1.4,0.4-2.7,0.8-4,1.2l-4,1.3c-2.7,0.9-5.3,1.8-7.9,2.7c-2.6,1-5.2,1.9-7.8,2.9c-2.6,1-5.1,2-7.6,3.1
	c-1.4-9-3.5-18.6-6.2-20.8L412.9,262z M439,272.9v18.5c-4.8,2.2-15.6,5.8-29.2,9.8c0,0-0.7-8.3-2.1-17.1c2.6-0.7,5.3-1.6,7.9-2.4
	c2.6-0.8,5.3-1.8,7.9-2.7c2.6-1,5.2-1.9,7.8-2.9l3.9-1.5C436.4,274,437.7,273.5,439,272.9z M252,282.7c1-0.3,2-0.6,2.9-1l-1.3,5.3
	c-1.3-1.3-2.7-2.5-4.1-3.6C250.3,283.2,251.1,282.9,252,282.7z"/>
<path d="M340.5,302.9c-13.9-2.2-52-14.6-58.8-19.8c-5-3.8-10.8-10.1-11.6-25.1c-1.1,6.8-2.2,13.7-3.4,20.5l0,0.2
	c0.9-0.5,1.8-0.8,2.7-1.1c1.1-0.3,2.2-0.4,3.3-0.3c-0.9,0.6-2,1-3.1,1.2c-1,0.2-2,0.3-3,0.3l-2.7,15.9c2.5,1.7,5,3.4,7.4,5.1
	l3.8,2.7l3.8,2.8c2.5,1.9,5.1,3.7,7.6,5.6c2.5,1.9,5,3.8,7.5,5.7l0,0c0.1,0.1,0.1,0.1,0.1,0.2c1.9-0.5,3.9-1.1,5.8-1.6l6.2-1.6
	c4.1-1,8.2-2,12.4-3c4.1-0.9,8.3-1.9,12.4-2.8c4.1-0.9,8.3-1.8,12.5-2.5c-4.1,1.2-8.2,2.2-12.3,3.3c-4.1,1-8.2,2-12.4,3
	c-4.1,0.9-8.3,1.9-12.4,2.8l-6.2,1.3c-2,0.4-3.9,0.8-5.9,1.1c0,0,0,0,0,0c0.4,4,0.7,8.1,0.9,12.1c-0.6-3.9-1.2-7.9-1.7-11.9
	c-2.5-1.8-5-3.6-7.5-5.5c-2.6-1.8-5.1-3.8-7.6-5.6l-3.8-2.9l-3.7-2.9c-2.4-1.8-4.7-3.7-7-5.6l-0.8,4.7c0,0.1-0.1,0.2-0.2,0.3
	c-0.1,0.1-0.2,0.1-0.3,0.1c0,0,0,0-0.1,0l-10.8-3.8c-0.1,0-0.2-0.1-0.3-0.2c-0.1-0.1-0.1-0.2,0-0.3l2.1-8.3c-1.9-1-3.6-2.2-5.3-3.4
	c-1.3,1-2.6,1.9-4,2.9c-1.5,1-2.9,2-4.4,3c1.4-1.1,2.7-2.3,4.1-3.4c1.3-1,2.6-2.1,3.9-3.1c0-0.1,0-0.1,0.1-0.2
	c-0.8-3-1.4-5.9-2.2-8.9c-0.8-3.1-1.4-6.2-2.1-9.3c-0.7-3.1-1.4-6.2-2-9.3c-0.7-3.1-1.2-6.2-1.8-9.4c0.9,3.1,1.7,6.1,2.4,9.2
	c0.8,3.1,1.5,6.2,2.3,9.2c0.7,3.1,1.5,6.2,2.1,9.3c0.7,2.9,1.3,5.9,1.9,8.8c1.1-0.2,2.1-0.5,3.2-0.7c1-0.2,2.1-0.3,3.1-0.4l1.2-4.6
	l4.8-18.5l0,0v0c0.6-1.6,1.1-3.3,1.4-5c0.4-1.6,0.4-3.4,0-5c-0.3-0.8-0.7-1.5-1.3-2c-0.3-0.3-0.7-0.5-1-0.7l-0.6-0.4L259,245
	c0,0-0.1,0-0.2-0.1c-1.7-0.4-3.4-0.6-5.1-0.8c-7-0.6-13.9-1-20.9-1.4c3.5,0.1,7,0.2,10.5,0.3c3.5,0.1,7,0.3,10.5,0.5
	c0.9,0.1,1.8,0.2,2.6,0.2c0.9,0.1,1.8,0.2,2.7,0.5c0.1,0,0.3,0.1,0.4,0.2l0.2,0.2l0.5,0.3c0.4,0.2,0.8,0.5,1.1,0.8
	c0.7,0.6,1.3,1.4,1.6,2.3c0.5,1.8,0.5,3.6,0.1,5.4c-0.3,1.7-0.8,3.4-1.4,5.1l-4.7,18.5l-4.6,18.1l9.9,3.5l3.8-20.4
	c1.3-6.8,2.6-13.6,4-20.4c-0.2-6.6,0.2-13.1,1.4-19.6l-18.3-1.9c-1.8-0.2-3.6-0.9-5-2.1c-1.5-0.2-3-0.5-4.4-0.9
	c-0.4-0.1-0.8-0.2-1.1-0.3c-0.2-0.1-0.4-0.1-0.6-0.2c0,0,0,0-0.1,0h0c-0.1,0-0.1,0-0.2,0c-0.7,0.2-1.4,0.5-2,0.9
	c-1.4,0.7-2.7,1.4-4.1,2.1c-1.4,0.7-2.8,1.4-4.2,2.1c2.4-2,5.1-3.7,7.9-5.1c0.7-0.4,1.5-0.7,2.3-0.9c0.1,0,0.3,0,0.4,0
	c0.2,0,0.3,0,0.5,0.1c0.2,0.1,0.3,0.1,0.5,0.2l1.1,0.4c1.4,0.5,2.8,1,4.2,1.6c-1.5-1.4-2.5-3.6-1.9-7.2l0.9-24.7l-3.8-0.8
	c0,0-2.8,0.6,2.7-15.1l8.7-25.1c0,0-34.2,4.2-35.4,5.5c-1.2,1.2,7.2,84.8,18.9,124.7c0,0,53.1,37.9,56.3,39.2
	c1.6,0.6,31-6.5,63.1-14.9C357.6,315.7,354.4,305.1,340.5,302.9z M228.3,185.5c-0.8-4.9-1.6-9.8-2.3-14.8c1.1,4.9,2.1,9.8,3,14.7
	c1,4.9,1.8,9.8,2.8,14.7c0.8,4.9,1.7,9.8,2.5,14.7l1.2,7.4c0.4,2.5,0.8,4.9,1.1,7.4c-0.6-2.4-1-4.9-1.6-7.3l-1.5-7.3
	c-1-4.9-1.8-9.8-2.8-14.7C230,195.4,229.1,190.5,228.3,185.5L228.3,185.5z M320.8,127.6c-1.8,0-4.1,1-6.5,1.5s-7.6-0.5-8.1-2
	c-0.5-1.5-3.6-13.8-4.1-13.2c-0.5,0.6-1.5,1.6-1.5,1.6s-0.2,15,0.2,16.6c0.3,1.6,6.5,9.7,15.5,8.9c9.1-0.8,10.4-11.6,10.4-11.6
	S322.6,127.6,320.8,127.6z M322.3,132c-0.7,0.4-1.4,0.6-2.2,0.5c-0.8-0.1-1.5-0.3-2.1-0.7c-0.6-0.4-1.2-0.9-1.6-1.5
	c1.2,0.6,2.5,1,3.8,1.2c0.6,0,1.2,0,1.8-0.2c0.6-0.2,1.2-0.6,1.8-0.9C323.4,131.1,322.9,131.6,322.3,132L322.3,132z"/>
<path d="M300.6,115.5c0,0,8.3-7.8,7.6-17.4c0,0,2.1-2,5.6,1.3c0,0,3,0.8,6.4-2.8c3.5-3.6,5.3,1.7,5.3,1.7s1.8,5.6,2.3,4.1
	c0.5-1.5,1.3-8.6-6.1-10.9c-5.8-1.7-11.8-2.4-17.9-2c-2,0.3-6.1,3.6-6.1,8.3s-2,10.4-1.8,12.2C296.1,111.9,300.6,115.5,300.6,115.5z
	 M318,112.6c-1.5,0.9-3.1,1.5-4.8,1.6c-0.9,0.1-1.7,0.1-2.6-0.1c-0.9-0.1-1.7-0.4-2.4-0.9c0.8,0.2,1.6,0.3,2.5,0.4
	c0.8,0,1.6,0,2.4-0.1C314.8,113.4,316.4,113.1,318,112.6z M327.3,112.3c-0.9,0.4-1.8,0.7-2.8,0.7c-1,0.1-2-0.2-2.8-0.7
	c0.9,0.1,1.9,0.1,2.8,0C325.4,112.3,326.3,112.2,327.3,112.3z M314.3,117c0.3,0,0.5-0.1,0.7-0.3c0.2-0.2,0.3-0.5,0.3-0.7
	s-0.1-0.5-0.3-0.7c-0.2-0.2-0.4-0.3-0.7-0.3c-0.3,0-0.5,0.1-0.7,0.3c-0.2,0.2-0.3,0.5-0.3,0.7s0.1,0.5,0.3,0.7
	C313.8,116.9,314.1,117,314.3,117L314.3,117z M324.9,116.4c0.3,0,0.5-0.1,0.7-0.3s0.3-0.4,0.3-0.7c0-0.3-0.1-0.5-0.3-0.7
	c-0.2-0.2-0.4-0.3-0.7-0.3c-0.3,0-0.5,0.1-0.7,0.3c-0.2,0.2-0.3,0.5-0.3,0.7c0,0.3,0.1,0.5,0.3,0.7
	C324.4,116.3,324.6,116.4,324.9,116.4L324.9,116.4z"/>
<path d="M296,110.1c-0.4,0.2-0.7,0.4-0.9,0.7c-0.3,0.3-0.5,0.6-0.6,1c-0.2,0.7-0.2,1.5,0,2.3c0.5,1.5,1,3,1.7,4.5
	c0.6,1.5,1,3.1,1.4,4.7c0.1,0.7,0.5,1.4,1.1,2c0.3,0.3,0.6,0.4,1,0.6c0.4,0.1,0.8,0.1,1.2,0.1c-0.4,0.1-0.8,0.1-1.2,0.1
	c-0.4-0.1-0.8-0.2-1.1-0.5c-0.7-0.5-1.2-1.3-1.4-2.1c-0.4-1.5-0.9-3.1-1.5-4.5c-0.3-0.8-0.6-1.5-0.9-2.2c-0.3-0.8-0.6-1.5-0.7-2.4
	c-0.2-0.8-0.1-1.7,0.2-2.5c0.2-0.4,0.4-0.7,0.7-1C295.2,110.4,295.6,110.2,296,110.1L296,110.1z M322.9,121.3c0.4,1,0.4,2.2,0,3.2
	c-0.2,0.6-0.7,1-1.2,1.3c-0.5,0.2-1.1,0.2-1.7,0c0.5-0.1,1-0.2,1.4-0.5c0.4-0.3,0.7-0.6,0.8-1.1
	C322.6,123.3,322.8,122.3,322.9,121.3L322.9,121.3z M327.9,102.5c-0.1,2.3-0.1,4.5,0,6.8c0.1,1.1,0.2,2.2,0.4,3.4
	c0.2,1.1,0.5,2.2,0.7,3.3c0.4,2.3,0.4,4.6-0.1,6.9c-0.5,2.2-1.2,4.4-2.2,6.5c0.7-2.2,1.3-4.4,1.6-6.6c0.3-2.2,0.3-4.5-0.1-6.7
	c-0.2-1.1-0.5-2.2-0.6-3.4c-0.2-1.1-0.3-2.3-0.3-3.4C327.3,107,327.5,104.7,327.9,102.5L327.9,102.5z M300.8,132.1
	c-0.1,1.3-0.6,2.6-1.4,3.6c-0.4,0.5-0.9,1-1.5,1.4c-0.6,0.4-1.2,0.5-1.9,0.6c0.6-0.3,1.1-0.6,1.6-1c0.5-0.4,0.9-0.9,1.2-1.4
	c0.4-0.5,0.7-1,1-1.6C300.1,133.2,300.5,132.7,300.8,132.1z"/>
<path d="M300.1,133.8c-5,1-9.9,2.5-14.7,4.5c-2.5,0.9-5,1.4-7.6,1.6c-2.5,0.1-5.1,0.4-7.6,0.9c-0.6,0.1-1.1,0.3-1.6,0.6
	c-0.6,0.4-1.2,0.7-1.8,0.9c-1.1,0.4-2.2,1.1-3.1,1.9c-1.7,1.8-3.2,3.9-4.2,6.1c-0.6,1.1-1.1,2.3-1.6,3.5c-0.5,1.2-1,2.4-1.4,3.6
	c-0.4,1.2-0.9,2.4-1.3,3.6l-1.1,3.7l0,0l0,0c-2.4,6-4.6,12-6.5,18.2c-1,3.1-1.9,6.2-2.7,9.3c-0.4,1.6-0.7,3.1-1,4.7
	c-0.1,0.8-0.2,1.6-0.3,2.3c0,0.4,0,0.7,0,1.1c0,0.3,0.1,0.5,0.2,0.7l-0.3-0.1c5.7,1.1,11.4,2.2,17.1,3.3l8.5,1.6l4.3,0.7
	c1.4,0.2,2.8,0.4,4.2,0.5l0.4,0c0,0,0,0,0,0c0,0,0.1-0.1,0.1-0.1c0.2-0.2,0.3-0.5,0.5-0.7c0.3-0.6,0.5-1.3,0.7-1.9
	c0.4-1.4,0.7-2.8,0.9-4.2c0.5-2.8,0.7-5.7,0.9-8.6c0.2-2.9,0.2-5.8,0.2-8.7c0-2.9-0.2-5.8-0.5-8.7c0,0,0,0,0,0c0,0,0,0,0,0
	c0,0,0,0,0.1,0c0,0,0,0,0,0c0.5,2.9,0.8,5.7,1,8.6c0.2,2.9,0.2,5.8,0.2,8.7c-0.1,2.9-0.3,5.8-0.7,8.7c-0.2,1.5-0.5,2.9-0.9,4.3
	c-0.2,0.7-0.4,1.5-0.8,2.2c-0.2,0.4-0.4,0.8-0.7,1.1c-0.1,0.1-0.2,0.2-0.3,0.3c-0.1,0.1-0.3,0.2-0.5,0.2c-0.2,0-0.4,0-0.7,0
	c-1.5-0.1-3-0.3-4.4-0.5l-4.3-0.7c-2.9-0.5-5.7-1-8.6-1.6c-5.7-1.1-11.4-2.3-17-3.5l0,0c-0.1,0-0.2-0.1-0.2-0.1
	c-0.4-0.4-0.6-0.9-0.6-1.5c0-0.4,0-0.9,0-1.3c0.1-0.8,0.2-1.6,0.4-2.5c0.3-1.6,0.7-3.2,1.2-4.7c0.9-3.1,1.9-6.2,3-9.2
	c1.1-3,2.2-6.1,3.3-9.1l3.4-9.1l0,0c1.3-5,3-9.9,5-14.6c1-2.4,2.5-4.7,4.3-6.6c1-0.9,2.2-1.6,3.4-2.1c0.6-0.2,1.1-0.5,1.6-0.8
	c0.6-0.4,1.3-0.6,2-0.8c2.6-0.4,5.2-0.7,7.7-0.8c1.3-0.1,2.5-0.2,3.8-0.5c1.2-0.2,2.5-0.5,3.7-0.9c4.8-1.8,9.9-3.1,15-3.8
	c0,0,0,0,0.1,0C300.2,133.7,300.2,133.8,300.1,133.8C300.2,133.8,300.2,133.8,300.1,133.8C300.2,133.8,300.1,133.8,300.1,133.8
	L300.1,133.8z"/>
<path d="M316.3,148.2c-0.1,0.6-0.1,1.2-0.1,1.8c0,0.6,0.1,1.2,0.1,1.8l0.4,3.7c0.3,2.5,0.6,4.9,0.9,7.4l0.5,3.7
	c0.3,1.3,0.1,2.7-0.6,3.8c-0.2,0.3-0.5,0.5-0.8,0.7c-0.3,0.2-0.6,0.3-1,0.3c-0.3,0-0.7,0-1-0.1c-0.3-0.1-0.7-0.3-0.9-0.5
	c-0.3-0.2-0.5-0.5-0.7-0.8c-0.2-0.3-0.3-0.6-0.3-1l-0.2-1.8c-0.3-2.5-0.6-4.9-0.9-7.4c-0.2-1.2-0.4-2.4-0.7-3.6
	c-0.1-0.3-0.2-0.6-0.3-0.8c0-0.1-0.1-0.1-0.1-0.2c0,0-0.1-0.1-0.2-0.1L310,155c-0.6-0.2-1.1-0.5-1.7-0.7c-2.3-0.9-4.6-1.8-7-2.5
	c-1.2-0.4-2.4-0.9-3.5-0.5c-0.5,0.2-0.9,0.7-1.2,1.1c-0.3,0.5-0.4,1.1-0.4,1.6c0,0.1,0,0.1-0.1,0.2c0,0-0.1,0.1-0.2,0.1
	c0,0-0.1,0-0.1,0c0,0-0.1-0.1-0.1-0.1c-0.6-1.1-1.4-2.2-2.2-3.2c-0.8-1-1.7-1.9-2.7-2.7c-0.5-0.4-1.1-0.7-1.6-0.9
	c-0.7-0.2-1.3-0.5-1.9-0.8c-1.2-0.7-2.2-1.7-3-2.8c0,0,0,0,0-0.1l0,0c-0.2-0.7-0.1-1.4,0.2-2c0.3-0.6,0.7-1.1,1.2-1.5
	c1-0.8,2-1.5,3.1-2.1c2.2-1.1,4.5-2,6.9-2.7c0.1,0,0.1,0,0.2,0c0.1,0,0.1,0.1,0.1,0.1c0,0.1,0.1,0.1,0.1,0.2c0,0.1,0,0.1,0,0.2l0,0
	c-0.4,0.6-0.6,1.4-0.7,2.1c-0.1,0.4-0.1,0.8-0.1,1.1c0,0.4,0,0.8,0.1,1.1c0.3,1.5,0.8,3,1.7,4.3c0.4,0.7,0.9,1.3,1.4,1.9
	c0.5,0.6,1,1.2,1.6,1.8c0.6,0.5,1.1,1.1,1.7,1.6l1.8,1.5c0,0,0,0,0,0c0,0,0,0,0,0c0,0,0,0,0,0c0,0,0,0,0,0c0,0,0,0,0,0c0,0,0,0,0,0
	l-1.9-1.4c-0.6-0.5-1.2-1-1.8-1.6c-0.6-0.5-1.1-1.2-1.7-1.7c-0.5-0.6-1-1.3-1.4-1.9c-0.9-1.3-1.6-2.9-1.9-4.4
	c-0.1-0.4-0.1-0.8-0.1-1.2c0-0.4,0-0.8,0.1-1.2c0.1-0.8,0.4-1.6,0.8-2.4l0.3,0.5c-2.3,0.7-4.6,1.6-6.8,2.7c-1.1,0.5-2.1,1.2-3,2
	c-0.5,0.3-0.8,0.7-1,1.2c-0.2,0.5-0.3,1.1-0.2,1.6l0-0.1c0.7,1.1,1.6,2,2.7,2.6c0.5,0.3,1.1,0.6,1.7,0.8c0.7,0.2,1.3,0.6,1.8,1
	c1.1,0.8,2,1.8,2.8,2.9c0.8,1.1,1.5,2.2,2.2,3.4l-0.5,0.1c0-0.7,0.2-1.3,0.5-1.9c0.1-0.3,0.4-0.6,0.6-0.8c0.3-0.2,0.6-0.4,0.9-0.5
	c1.3-0.4,2.6,0.2,3.7,0.6c2.3,0.8,4.6,1.7,6.9,2.7l1.7,0.7l0.4,0.2c0.1,0,0.2,0.1,0.2,0.1c0.1,0.1,0.1,0.1,0.2,0.2
	c0.1,0.3,0.3,0.6,0.3,0.9c0.3,1.2,0.6,2.4,0.8,3.6c0.4,2.4,0.8,4.9,1.2,7.3l0.3,1.8c0,0.3,0.1,0.5,0.2,0.8c0.1,0.2,0.3,0.4,0.5,0.6
	c0.4,0.3,1,0.5,1.5,0.4c0.5-0.1,1-0.3,1.4-0.8c0.3-0.5,0.5-1,0.5-1.6c0.1-0.6,0-1.2-0.1-1.8l-0.4-3.7c-0.3-2.5-0.5-4.9-0.7-7.4
	c-0.1-1.2-0.2-2.5-0.2-3.7c0-0.6,0-1.2,0-1.9C316.1,149.4,316.1,148.8,316.3,148.2C316.3,148.1,316.3,148.1,316.3,148.2
	C316.3,148.1,316.3,148.1,316.3,148.2C316.3,148.1,316.3,148.1,316.3,148.2C316.3,148.1,316.3,148.2,316.3,148.2L316.3,148.2z"/>
<path d="M319.4,140.2c0.5,0.7,0.9,1.4,1.3,2.2c0.2,0.4,0.3,0.8,0.5,1.2c0.1,0.4,0.2,0.8,0.3,1.3c0.2,0.9,0.1,1.8-0.2,2.6
	c-0.3,0.9-0.9,1.6-1.7,2c0,0-0.1,0-0.1,0c0,0-0.1,0-0.1,0c0,0-0.1,0-0.1,0c0,0-0.1-0.1-0.1-0.1c0,0,0-0.1,0-0.1l0,0
	c-0.1-1.2-0.4-2.4-0.8-3.5c-0.2-0.6-0.5-1.1-0.9-1.5c-0.2-0.2-0.5-0.3-0.7-0.4c-0.1,0-0.3,0.1-0.4,0.1c-0.1,0.1-0.2,0.2-0.3,0.3
	c-0.7,1-1.2,2.1-1.5,3.3c-0.3,1.2-0.6,2.3-0.9,3.5l0-0.1l0.3,2.1c0,0.1,0,0.2-0.1,0.3c-0.1,0.1-0.1,0.1-0.2,0.1
	c-0.1,0-0.2,0-0.3-0.1c-0.1-0.1-0.1-0.1-0.2-0.2l0,0c-0.2-1-0.3-2-0.3-3.1c-0.1-1,0-2,0-3c0.1-2,0.3-4,0.6-6c0,0,0,0,0,0
	c0,0,0,0,0,0c0,0,0,0,0,0c0,0,0,0,0,0c-0.1,2-0.1,4-0.1,6c0,2,0.1,4,0.4,6l-0.7,0.1l-0.2-2.2l0,0c0,0,0-0.1,0-0.1
	c0.3-1.2,0.6-2.4,1.1-3.5c0.4-1.2,1-2.3,1.7-3.3c0.1-0.1,0.2-0.2,0.4-0.3c0.2-0.1,0.3-0.1,0.5-0.1c0.3,0.1,0.6,0.2,0.9,0.4
	c0.4,0.4,0.8,1,1,1.6c0.5,1.1,0.9,2.3,1.1,3.6l-0.4-0.2c0.6-0.4,1.1-1,1.4-1.7c0.3-0.7,0.4-1.5,0.3-2.3c0-0.4-0.1-0.8-0.2-1.2
	c-0.1-0.4-0.2-0.8-0.4-1.2c-0.2-0.4-0.3-0.8-0.5-1.1L319.4,140.2C319.4,140.2,319.4,140.2,319.4,140.2
	C319.4,140.2,319.4,140.2,319.4,140.2C319.4,140.2,319.4,140.2,319.4,140.2C319.4,140.2,319.4,140.2,319.4,140.2
	C319.4,140.2,319.4,140.2,319.4,140.2C319.4,140.2,319.4,140.2,319.4,140.2L319.4,140.2z M314.4,156.6c0.3,0,0.5-0.1,0.7-0.3
	c0.2-0.2,0.3-0.5,0.3-0.7c0-0.3-0.1-0.5-0.3-0.7c-0.2-0.2-0.4-0.3-0.7-0.3c-0.3,0-0.5,0.1-0.7,0.3c-0.2,0.2-0.3,0.5-0.3,0.7
	c0,0.3,0.1,0.5,0.3,0.7C313.9,156.5,314.2,156.6,314.4,156.6L314.4,156.6z M315.2,162.3c0.3,0,0.5-0.1,0.7-0.3
	c0.2-0.2,0.3-0.4,0.3-0.7c0-0.3-0.1-0.5-0.3-0.7c-0.2-0.2-0.4-0.3-0.7-0.3c-0.3,0-0.5,0.1-0.7,0.3c-0.2,0.2-0.3,0.5-0.3,0.7
	c0,0.3,0.1,0.5,0.3,0.7C314.7,162.2,314.9,162.3,315.2,162.3z M315.8,167.8c0.3,0,0.5-0.1,0.7-0.3c0.2-0.2,0.3-0.4,0.3-0.7
	c0-0.3-0.1-0.5-0.3-0.7c-0.2-0.2-0.4-0.3-0.7-0.3c-0.3,0-0.5,0.1-0.7,0.3c-0.2,0.2-0.3,0.5-0.3,0.7c0,0.3,0.1,0.5,0.3,0.7
	C315.3,167.7,315.5,167.8,315.8,167.8L315.8,167.8z M322.4,138.3c4.1,0.1,8.3,0.4,12.4,0.8c2.1,0.2,4.1,0.5,6.2,0.8
	c2.1,0.3,4.1,0.8,6.1,1.6c0.3,0.1,0.5,0.3,0.7,0.5c0.2,0.2,0.4,0.4,0.6,0.6c0.3,0.4,0.7,0.7,1.1,1.1c0.8,0.7,1.5,1.5,2.1,2.4
	c1.2,1.8,2,3.7,2.5,5.7c1,4,1.7,8.1,1.9,12.3c-0.5-4.1-1.3-8.1-2.4-12.1c-0.6-2-1.4-3.8-2.5-5.5c-0.6-0.8-1.3-1.6-2-2.3
	c-0.4-0.4-0.8-0.7-1.1-1.1c-0.3-0.4-0.7-0.7-1.1-0.9c-1.9-0.8-3.8-1.3-5.8-1.6c-2-0.4-4.1-0.6-6.1-0.9
	C330.6,139.1,326.5,138.6,322.4,138.3z M265.7,147c1.9-0.4,3.9-0.2,5.6,0.7c1.8,0.8,3.3,2.2,4.4,3.8c0.5,0.8,1,1.6,1.4,2.5
	c0.4,0.9,0.7,1.8,1,2.7c0.2,0.9,0.5,1.9,0.6,2.8c0.1,1,0.2,1.9,0.3,2.8c-0.2-0.9-0.4-1.9-0.7-2.8c-0.2-0.9-0.5-1.8-0.8-2.7
	c-0.4-0.9-0.7-1.8-1.1-2.6c-0.4-0.8-0.9-1.6-1.4-2.4c-1-1.6-2.4-2.8-4-3.7C269.5,147.3,267.6,146.9,265.7,147L265.7,147z
	 M290.2,190.6c0.5,1.3,1,2.5,1.6,3.7c0.6,1.2,1.2,2.4,1.8,3.6c1.3,2.4,2.7,4.6,4.3,6.8c1.6,2.2,3.4,4.1,5.4,5.9l1.5,1.3
	c0.5,0.4,1.1,0.8,1.6,1.2l0.8,0.6c0.3,0.2,0.6,0.3,0.9,0.5l1.7,1c-2.5-1.1-4.8-2.5-6.9-4.2c-2.1-1.7-4-3.7-5.6-5.9
	c-1.6-2.2-3-4.5-4.3-6.9C291.9,195.7,290.9,193.2,290.2,190.6L290.2,190.6z M247.2,202.2c0,4.1-0.1,8.2-0.2,12.4
	c-0.1,4.1-0.2,8.2-0.3,12.4l0,0l0,0c-0.3,1.6,0,3.3,0.6,4.9c0.7,1.5,1.9,2.6,3.4,3.2c0.4,0.1,0.8,0.3,1.2,0.4l1.2,0.2
	c0.8,0.1,1.7,0.2,2.6,0.3c1.7,0.2,3.5,0.3,5.2,0.5c7,0.6,14,0.9,21,1c7,0.2,14-0.1,21-0.7c6.9-0.7,14-1.7,20.2-4.7
	c0.1,0,0.1,0,0.2,0c0.1,0,0.1,0.1,0.2,0.1c0.5,0.8,1.2,1.4,2,1.8c0.8,0.4,1.7,0.7,2.7,0.7c0.9,0,1.9-0.1,2.8-0.3
	c0.5-0.1,0.9-0.3,1.4-0.4l1.3-0.6l-1.3,0.6c-0.4,0.2-0.9,0.3-1.4,0.5c-0.9,0.3-1.9,0.4-2.9,0.4c-1,0-2-0.2-2.9-0.7
	c-0.9-0.5-1.7-1.1-2.2-1.9l0.4,0.1c-3.1,1.6-6.5,2.9-10,3.6c-3.4,0.8-6.9,1.4-10.4,1.8c-7,0.7-14.1,1-21.1,0.9
	c-7,0-14.1-0.5-21.1-1.1c-1.8-0.2-3.5-0.3-5.3-0.5c-0.9-0.1-1.7-0.2-2.6-0.3l-1.4-0.3c-0.4-0.1-0.9-0.3-1.3-0.5
	c-1.8-0.7-3.2-2.1-4-3.9c-0.7-1.7-0.9-3.6-0.5-5.5l0,0.1c0.2-4.1,0.4-8.2,0.6-12.3C246.6,210.5,246.9,206.4,247.2,202.2z"/>
<path d="M272.7,207.1c0.1,2.3,0.2,4.5,0.3,6.8l-0.2-0.2c8,2.9,16.3,4.5,24.8,4.7c4.2,0.1,8.4-0.2,12.5-1l3.1-0.7c1-0.3,2-0.6,3-0.9
	l1.5-0.5c0.5-0.2,1-0.4,1.5-0.6l2.9-1.2l-0.2,0.4c0.1-0.7,0.4-1.3,0.8-1.9c0.4-0.6,0.8-1,1.4-1.4c1.1-0.7,2.3-1.2,3.6-1.5
	c0.6-0.1,1.2-0.2,1.9-0.2c0.6,0,1.3-0.1,1.9,0c0.6,0.1,1.2,0.1,1.9,0.1l1.8,0.3l-1.9-0.1c-0.6,0-1.2,0-1.9,0c-0.6,0-1.2,0.1-1.8,0.1
	c-0.6,0.1-1.2,0.2-1.8,0.3c-1.2,0.3-2.3,0.8-3.2,1.5c-0.9,0.7-1.5,1.7-1.7,2.8l0,0c0,0.1,0,0.1-0.1,0.2c0,0.1-0.1,0.1-0.2,0.1
	c-3.8,2-7.9,3.5-12.1,4.4c-4.2,0.9-8.5,1.2-12.8,1c-4.3-0.2-8.6-0.7-12.7-1.7c-2.1-0.5-4.2-1-6.2-1.7c-2-0.6-4.1-1.4-6-2.3l0,0
	c0,0-0.1-0.1-0.1-0.1s0-0.1,0-0.1C272.5,211.6,272.6,209.3,272.7,207.1z"/>
<path d="M252.7,219.1c1.1-1.5,2.5-2.7,4-3.7c1.6-0.9,3.3-1.6,5.1-2.1c0.9-0.2,1.8-0.3,2.7-0.4c0.9-0.1,1.8-0.1,2.8,0
	c0.9,0,1.8,0.2,2.7,0.3c0.9,0.2,1.8,0.4,2.7,0.6c-0.9-0.1-1.8-0.2-2.7-0.3c-0.9,0-1.8-0.2-2.7-0.1c-1.8,0-3.6,0.2-5.3,0.6
	c-1.7,0.4-3.4,1-5,1.9C255.4,216.7,253.9,217.8,252.7,219.1z M322.3,213.9c0.3,0.6,0.6,1.2,1,1.7c0.4,0.5,0.8,1,1.3,1.4
	c0.1,0.1,0.3,0.1,0.4,0.2c0.2,0.1,0.4,0.2,0.5,0.3c0.1,0.2,0.2,0.4,0.2,0.6c0,0.2,0,0.4-0.1,0.6c-0.2,0.7-0.6,1.3-1.1,1.8l0,0l0,0
	c-0.5,0.5-0.9,1.1-1.1,1.8c-0.1,0.3-0.1,0.7-0.1,1c0,0.3,0.2,0.6,0.3,0.9c0.3,0.5,1.1,1.1,1.3,1.9c0.1,0.2,0.1,0.4,0.1,0.7
	c0,0.2-0.1,0.5-0.2,0.7c-0.2,0.4-0.6,0.7-1,0.8l0.1-0.1c-0.5,0.6-1,1.3-1.2,2c-0.1,0.4-0.2,0.8-0.1,1.2c0.1,0.4,0.3,0.8,0.5,1.1
	c-0.3-0.3-0.6-0.6-0.7-1c-0.1-0.4-0.1-0.9,0-1.3c0.1-0.4,0.2-0.8,0.4-1.2c0.2-0.4,0.4-0.7,0.7-1.1c0,0,0,0,0.1,0l0,0
	c0.3-0.1,0.5-0.4,0.7-0.6c0.1-0.1,0.1-0.3,0.1-0.4c0-0.1,0-0.3-0.1-0.4c-0.2-0.6-0.8-1-1.3-1.8c-0.2-0.4-0.4-0.8-0.5-1.2
	c0-0.4,0-0.9,0.1-1.3c0.3-0.8,0.7-1.5,1.4-2l0,0c0.4-0.4,0.8-1,1-1.6c0.1-0.1,0.1-0.2,0.1-0.4c0-0.1,0-0.2-0.1-0.4
	c-0.1-0.1-0.2-0.2-0.3-0.2c-0.2-0.1-0.3-0.2-0.5-0.3c-0.6-0.4-1-1-1.3-1.6C322.7,215.1,322.4,214.5,322.3,213.9L322.3,213.9z
	 M334.6,214.6c0,0.4,0,0.8-0.1,1.2c-0.8,0-1.7,0-2.5-0.1c-1-0.1-2-0.2-2.9-0.5c1-0.2,1.9-0.4,2.9-0.5
	C332.9,214.6,333.7,214.6,334.6,214.6z M334.4,219.2c0,0.4,0,0.8-0.1,1.2c-0.8,0-1.5,0-2.3-0.1c-1-0.1-2-0.2-2.9-0.5
	c1-0.2,1.9-0.4,2.9-0.5C332.8,219.2,333.6,219.2,334.4,219.2z M334.1,223.7c0,0.4,0,0.8,0,1.2c-0.7,0-1.4-0.1-2.1-0.1
	c-1-0.1-2-0.2-2.9-0.5c1-0.2,1.9-0.4,2.9-0.5C332.7,223.7,333.4,223.7,334.1,223.7z M332,229.1c0.6-0.1,1.3-0.1,1.9-0.1
	c0,0.4,0,0.8,0,1.2c-0.6,0-1.3,0-1.9-0.1c-1-0.1-2-0.2-2.9-0.5C330,229.4,331,229.2,332,229.1L332,229.1z M310.8,239.4
	c0,0-12.4-12.3-17-4.3c-4.6,8-1.4,13.8,2,17.7c4.2,4.8,4.4,6.2,5.6,7.7c1.2,1.4,15.3,18.6,32.8,17.6c10.2-0.6,10-6,8.1-10.4
	c-1.4-3.1-3.6-5.8-6.5-7.8C330.2,255.9,317.7,246.9,310.8,239.4z"/>
<path d="M306.5,235.9c2.7,0.1,5.3,0.3,8,0.5l8,0.5c2.7,0.2,5.3,0.4,8,0.5c1.3,0.1,2.7,0.1,4,0.2c0.7,0,1.3,0,2,0l1,0l1-0.2
	c-2.6,0.5-5.3,0.7-8,0.6c-2.7,0-5.3-0.2-8-0.3c-2.7-0.2-5.3-0.4-8-0.7C311.8,236.6,309.2,236.3,306.5,235.9z M333.1,258.3
	c-0.1,0-0.1,0-0.2-0.1c-0.1,0-0.1-0.1-0.1-0.2c0-0.1,0-0.2,0-0.2c0-0.1,0.1-0.1,0.1-0.2c0.5-0.3,13.3-7.8,18-6.2
	c0.1,0,0.2,0.1,0.2,0.2c0,0.1,0,0.2,0,0.3c0,0.1-0.1,0.2-0.2,0.2s-0.2,0-0.3,0c-4.5-1.5-17.3,6.1-17.5,6.2
	C333.2,258.2,333.2,258.3,333.1,258.3L333.1,258.3z"/>
<path d="M409.1,207.6L409.1,207.6L409.1,207.6l30,11.1l0,0c3,1.4,5.8,3.1,8.5,5c2.7,2,5,4.3,7,7c1,1.3,1.8,2.8,2.3,4.4
	c0.5,1.6,0.9,3.2,1.2,4.8c0.7,3.3,0.4,6.7-0.7,9.9c-0.6,1.6-1.5,3-2.7,4.3c-1.2,1.2-2.5,2.3-4,3.1c-1.5,0.8-3.1,1.4-4.7,1.7
	c-0.8,0.2-1.6,0.3-2.5,0.4l-2.4,0.3c-6.5,0.7-13,1.4-19.5,2c-13,1.3-26,2.5-39,3.5c-3.3,0.2-6.5,0.5-9.8,0.7
	c-3.3,0.2-6.5,0.4-9.8,0.2c-1.7-0.1-3.3-0.8-4.6-1.9c-1.3-1-2.4-2.3-3.4-3.6c-1.9-2.7-3.4-5.7-4.5-8.8c0,0,0-0.1,0-0.1
	c0,0,0-0.1,0.1-0.1c0,0,0.1-0.1,0.1-0.1c0,0,0.1,0,0.1,0h0c1.4,0.2,2.8,0.2,4.2,0c0.7-0.1,1.3-0.4,1.5-0.9c0.1-0.6,0-1.3-0.4-1.9
	c-0.7-1.2-1.5-2.4-2.4-3.5c-0.9-1.1-1.8-2.2-2.7-3.3c-0.9-1.1-1.8-2.2-2.7-3.3c-0.8-1.1-1.8-2.1-3-3c-0.5-0.4-1.2-0.7-1.8-0.9
	c-0.7-0.1-1.4-0.1-2,0.1c-1.3,0.5-2.3,1.5-2.9,2.7l0,0c0,0-0.1,0.1-0.1,0.1c0,0-0.1,0-0.1,0c0,0-0.1,0-0.1-0.1c0,0-0.1-0.1-0.1-0.1
	c-0.5-1.4-0.7-2.8-0.7-4.3c0-0.7,0.1-1.5,0.3-2.2c0.2-0.7,0.7-1.4,1.3-1.8l0,0c0.6-0.5,1.2-0.9,1.9-1.2c0.7-0.3,1.3-0.5,2-0.7
	c1.4-0.4,2.8-0.8,4.2-1.1c2.8-0.6,5.6-1.1,8.4-1.6c5.6-0.9,11.3-1.6,17-2.2c11.3-1.3,22.7-2.3,34.1-3.1l-0.5,0.5
	c0.7-4.5,1.6-8.9,2.5-13.4l2.7-13.3l5.5-26.5l0.3,0.7c-0.6-0.3-1.3-0.6-2-0.7c-0.8-0.2-1.5-0.3-2.3-0.4c-1.6-0.2-3.1-0.4-4.7-0.5
	c-3.2-0.3-6.4-0.4-9.6-0.6c-6.4-0.3-12.8-0.4-19.2-0.5c-12.8-0.1-25.6,0-38.4,0.1l0.5-0.2c-0.4,0.5-0.8,1.1-1,1.8
	c-0.3,0.7-0.5,1.4-0.7,2.1c-0.4,1.5-0.7,3-1,4.5c-0.5,3-1,6.1-1.3,9.1c-0.7,6.1-1.3,12.3-1.7,18.4c-0.5,6.1-0.8,12.3-1.1,18.5
	c-0.3,6.2-0.6,12.3-0.8,18.5v0c0,0.1,0,0.2-0.1,0.2c-0.1,0.1-0.1,0.1-0.2,0.1l-26.3-0.7c0,0,0,0,0,0c0,0,0,0,0,0c0,0,0,0,0,0
	c0,0,0,0,0,0l26.3,0.2l-0.3,0.3c0.2-6.2,0.3-12.3,0.6-18.5c0.2-6.2,0.6-12.3,1-18.5c0.4-6.2,0.9-12.3,1.5-18.5
	c0.3-3.1,0.7-6.1,1.3-9.2c0.3-1.5,0.6-3.1,1-4.6c0.2-0.8,0.4-1.5,0.7-2.3c0.3-0.8,0.7-1.6,1.2-2.2c0.1-0.1,0.1-0.1,0.2-0.1
	c0.1,0,0.2-0.1,0.2-0.1l0,0c6.4-0.2,12.8-0.2,19.2-0.3c6.4,0,12.8,0,19.2,0c6.4,0.1,12.8,0.2,19.2,0.5c3.2,0.1,6.4,0.3,9.6,0.6
	c1.6,0.1,3.2,0.3,4.8,0.6c0.8,0.1,1.6,0.3,2.4,0.5c0.9,0.2,1.7,0.5,2.5,1c0.1,0.1,0.2,0.2,0.2,0.3c0,0.1,0.1,0.2,0,0.4l0,0
	l-5.6,26.5l-2.8,13.2c-0.9,4.4-1.9,8.9-2.6,13.2l0,0c0,0.1-0.1,0.2-0.2,0.3c-0.1,0.1-0.2,0.1-0.3,0.1c-11.4,0.7-22.7,1.6-34.1,2.8
	c-5.7,0.6-11.3,1.3-17,2.1c-2.8,0.4-5.6,0.9-8.4,1.5c-1.4,0.3-2.8,0.6-4.1,1c-0.7,0.2-1.3,0.4-2,0.7c-0.6,0.2-1.2,0.6-1.7,1l0,0l0,0
	c-0.5,0.4-0.9,1-1.1,1.6c-0.2,0.7-0.3,1.3-0.3,2c0,1.4,0.2,2.8,0.6,4.1l-0.4,0c0.7-1.4,1.8-2.4,3.2-2.9c0.7-0.2,1.5-0.2,2.2-0.1
	c0.7,0.2,1.4,0.5,2,0.9c1.2,0.9,2.2,1.9,3.1,3.1c0.9,1.1,1.8,2.2,2.7,3.3c0.9,1.1,1.8,2.2,2.7,3.3c0.9,1.1,1.8,2.3,2.5,3.6
	c0.4,0.7,0.6,1.5,0.4,2.2c-0.2,0.4-0.4,0.7-0.8,0.9c-0.3,0.2-0.7,0.3-1.1,0.4c-1.4,0.2-2.9,0.2-4.4,0l0.3-0.3
	c1.1,3.1,2.6,5.9,4.5,8.6c0.9,1.3,2,2.5,3.3,3.5c1.2,1,2.7,1.6,4.3,1.7c3.2,0.1,6.5-0.2,9.7-0.4c3.3-0.2,6.5-0.5,9.8-0.8
	c13-1.2,26-2.4,39-3.7l19.5-2c1.6-0.2,3.3-0.3,4.8-0.6c1.5-0.3,3-0.9,4.4-1.6c2.8-1.4,5-3.8,6.2-6.8c1.1-3,1.3-6.2,0.7-9.4
	c-0.3-1.6-0.7-3.1-1.2-4.7c-0.5-1.5-1.2-2.9-2.2-4.2c-1.9-2.6-4.1-4.9-6.7-6.9c-2.6-2-5.4-3.6-8.3-5l0,0l-29.8-11.7l0,0h0
	c0,0,0,0,0,0S409.1,207.7,409.1,207.6C409.1,207.7,409.1,207.7,409.1,207.6C409.1,207.6,409.1,207.6,409.1,207.6L409.1,207.6z"/>
<path d="M341.1,164c-5,5.7-7.4,73.3-7.4,73.3h4.8c0,0-2-5.9,0.9-8c5.3-5.4,67.5-9.5,67.5-9.5c0.1-1.2,1.1-5.9,2.3-12.1
	c3.2-15.8,8.6-40.9,8.6-40.9C412.3,162.5,341.1,164,341.1,164z M376.3,195c-6,0-10.9-1.4-10.9-3.2c0-1.8,4.9-3.2,10.9-3.2
	c6,0,10.9,1.4,10.9,3.2C387.2,193.6,382.3,195,376.3,195L376.3,195z M271.6,237.9c-0.8,4.7-1.2,9.6-1.2,14.4
	c-0.1,4.8,0.4,9.6,1.4,14.3c1.1,4.6,2.9,9.2,6.1,12.7c1.6,1.7,3.5,3.1,5.6,4.2l1.6,0.9c0.5,0.3,1.1,0.5,1.6,0.8
	c1.1,0.5,2.2,1,3.3,1.5c4.4,1.9,8.9,3.6,13.5,5.1c4.6,1.5,9.2,2.9,13.8,4.3c9.2,2.7,18.6,5.1,27.9,7.5c2.4,0.6,4.6,1.7,6.6,3.3
	c2,1.5,3.6,3.4,4.8,5.6c0.6,1.1,1.1,2.2,1.5,3.4c0.4,1.2,0.6,2.4,0.8,3.6l1.2,7.1c1.6,9.5,3.2,19,4.9,28.5l10.2,57l-0.5-0.4
	c7.1,0.1,14.2,0,21.3-0.4c3.5-0.2,7.1-0.5,10.6-0.9c1.7-0.2,3.5-0.5,5.2-0.9c0.8-0.2,1.7-0.4,2.5-0.8c0.7-0.3,1.4-0.7,2-1.2
	l-0.2,0.5c-0.5-12.2-1.1-24.4-1.7-36.6c-0.6-12.2-1.4-24.4-2.2-36.6c-0.8-12.2-1.8-24.4-3.1-36.5c-0.7-6.1-1.4-12.1-2.4-18.1
	c-0.5-3-1-6-1.8-9c-0.4-1.5-0.8-2.9-1.3-4.4c-0.3-0.7-0.6-1.4-1-2c-0.2-0.3-0.4-0.6-0.7-0.9c-0.3-0.2-0.6-0.4-0.9-0.6l0,0
	c0,0,0,0,0,0c0,0,0,0,0-0.1c0,0,0,0,0,0c0,0,0,0,0.1,0c0.4,0.1,0.7,0.3,1,0.6c0.3,0.3,0.5,0.6,0.7,0.9c0.4,0.7,0.8,1.3,1,2.1
	c0.6,1.4,1,2.9,1.4,4.4c0.8,3,1.4,6,2,9c1.1,6,1.9,12.1,2.7,18.1c1.5,12.1,2.6,24.3,3.6,36.5c1,12.2,1.7,24.4,2.4,36.6
	c0.7,12.2,1.2,24.4,1.7,36.6v0c0,0.1,0,0.2,0,0.2c0,0.1-0.1,0.1-0.1,0.2c-0.7,0.7-1.6,1.2-2.5,1.5c-0.9,0.3-1.7,0.6-2.6,0.8
	c-1.8,0.4-3.5,0.7-5.3,0.9c-3.6,0.5-7.1,0.7-10.7,0.9c-7.1,0.3-14.3,0.3-21.4,0.1c-0.1,0-0.2,0-0.3-0.1c-0.1-0.1-0.1-0.2-0.2-0.3
	l-9.7-57c-1.6-9.5-3.3-19-5-28.5l-1.3-7.1c-0.2-1.2-0.5-2.3-0.8-3.5c-0.4-1.1-0.9-2.2-1.5-3.2c-1.2-2-2.8-3.8-4.7-5.2
	c-1.9-1.4-4-2.4-6.3-3c-9.4-2.2-18.7-4.6-28-7.3c-4.6-1.3-9.2-2.8-13.8-4.4c-4.6-1.5-9.1-3.2-13.6-5.2c-1.1-0.5-2.2-1-3.3-1.5
	c-0.5-0.3-1.1-0.5-1.6-0.8l-1.6-0.9c-2.2-1.2-4.1-2.7-5.8-4.5c-3.3-3.7-5.1-8.4-6.1-13.2c-0.9-4.8-1.3-9.6-1.1-14.5
	c0.1-4.8,0.7-9.6,1.6-14.4c0,0,0,0,0,0C271.5,237.8,271.5,237.8,271.6,237.9C271.6,237.8,271.6,237.9,271.6,237.9
	C271.6,237.9,271.6,237.9,271.6,237.9L271.6,237.9z M385.7,420.8c0,0-5.9-0.6-5.9,2.2c0,2.9,0.5,23.7,3,24.3
	c2.5,0.6,75.1,25.7,94.5,5.3c0,0,13.4-7.4-11.9-16.1c-25.3-8.7-41.2-17.4-41.2-17.4s-24.1,0.7-24.5,3.2c-0.5,2.5,3.2,11.4,3.2,11.4
	S387,437.5,385.7,420.8z"/>
<path d="M385.7,421.1C385.7,421.1,385.7,421.1,385.7,421.1c-0.2,0-0.2-0.1-0.3-0.2c0-0.1-0.1-0.2,0-0.3c0.3-1.4,0.4-2.9,0.1-4.4
	c-0.2-1.4-0.8-2.8-1.6-4.1c0,0,0-0.1-0.1-0.1c0,0,0-0.1,0-0.1c0,0,0-0.1,0-0.1c0,0,0.1-0.1,0.1-0.1c0,0,0.1,0,0.1-0.1
	c0,0,0.1,0,0.1,0c0,0,0.1,0,0.1,0c0,0,0.1,0.1,0.1,0.1c0.8,1.3,1.4,2.8,1.7,4.3c0.3,1.5,0.2,3.1-0.1,4.7c0,0.1-0.1,0.1-0.1,0.2
	C385.9,421.1,385.8,421.1,385.7,421.1z M421.2,419.5L421.2,419.5c-7.5-0.3-14.8-8.1-15.1-8.4c0,0-0.1-0.1-0.1-0.1c0,0,0-0.1,0-0.1
	c0,0,0-0.1,0-0.1c0,0,0-0.1,0.1-0.1c0,0,0.1-0.1,0.1-0.1c0,0,0.1,0,0.1,0c0,0,0.1,0,0.1,0c0,0,0.1,0,0.1,0.1
	c0.1,0.1,7.4,7.9,14.6,8.2c0.1,0,0.2,0,0.2,0.1c0.1,0.1,0.1,0.2,0.1,0.2c0,0.1,0,0.2-0.1,0.2C421.4,419.5,421.3,419.5,421.2,419.5
	L421.2,419.5z"/>
<path class="st0" d="M248.3,234.3c-0.1,0-0.1,0-0.1,0l-0.1-0.1C248.2,234.2,248.2,234.2,248.3,234.3L248.3,234.3z M270.1,257.9
	L270.1,257.9c0-0.1,0.1-0.3,0.1-0.5C270.2,257.6,270.1,257.7,270.1,257.9z M407.6,284.1L407.6,284.1c0,0-0.1,0-0.1,0.1
	C407.6,284.1,407.6,284.1,407.6,284.1z"/>
<path d="M238.3,291.5l1.2,20.7l1.1,20.7c0.4,6.9,0.9,13.8,1,20.7c0.1,3.5,0.1,6.9,0.1,10.4l-0.1,5.2c-0.1,1.7-0.1,3.5-0.2,5.2
	c0,0,0,0,0,0.1c0,0,0,0-0.1,0s-0.1,0-0.1,0c0,0,0,0,0-0.1c-0.2-1.7-0.4-3.4-0.6-5.2l-0.4-5.2c-0.3-3.4-0.5-6.9-0.7-10.4
	c-0.4-6.9-0.4-13.8-0.6-20.7l-0.5-20.7l-0.4-20.7c0,0,0-0.1,0-0.1c0,0,0,0,0.1,0C238.2,291.4,238.2,291.4,238.3,291.5
	C238.3,291.4,238.3,291.4,238.3,291.5L238.3,291.5z M294.6,330.7l0.6,21.1l0.5,21.1c0.2,7,0.5,14.1,0.4,21.1c0,3.5-0.1,7-0.2,10.5
	l-0.2,5.3c-0.1,1.8-0.2,3.5-0.3,5.3c0,0,0,0.1,0,0.1c0,0,0,0-0.1,0c0,0-0.1,0-0.1,0c0,0,0,0,0-0.1c-0.2-1.8-0.3-3.5-0.4-5.3
	l-0.3-5.3c-0.2-3.5-0.3-7-0.4-10.5c-0.2-7,0-14.1,0-21.1l0.1-21.1l0.2-21.1c0,0,0-0.1,0-0.1c0,0,0,0,0.1,0
	C294.5,330.6,294.5,330.6,294.6,330.7C294.6,330.6,294.6,330.6,294.6,330.7L294.6,330.7z"/>
<path d="M241.3,374.5c4.8,0,8.8-0.7,8.8-1.7c0-0.9-3.9-1.7-8.8-1.7c-4.8,0-8.8,0.7-8.8,1.7C232.5,373.8,236.4,374.5,241.3,374.5z"/>
<path d="M294.8,415.4c4.8,0,8.8-0.7,8.8-1.7c0-0.9-3.9-1.7-8.8-1.7c-4.8,0-8.8,0.7-8.8,1.7C286.1,414.6,290,415.4,294.8,415.4z"/>
<path d="M353.1,317l0.8,9.7l0.7,9.7c0.2,3.2,0.6,6.4,0.6,9.7c0,3.2-0.2,6.5-0.6,9.7c0,0,0,0,0,0.1c0,0,0,0-0.1,0c0,0,0,0-0.1,0
	c0,0,0,0,0-0.1c-0.6-3.2-1.1-6.4-1.3-9.7c-0.3-3.2-0.1-6.5-0.2-9.7l0-9.7l0.1-9.7c0,0,0-0.1,0-0.1c0,0,0,0,0.1,0
	C353,316.9,353,316.9,353.1,317C353.1,317,353.1,317,353.1,317z M430.1,294.9l0.6,20.8l0.5,20.8c0.2,6.9,0.5,13.9,0.4,20.8
	c0,3.5-0.1,7-0.2,10.4L431,373c-0.1,1.7-0.2,3.5-0.3,5.2c0,0,0,0,0,0.1c0,0,0,0-0.1,0c0,0,0,0-0.1,0c0,0,0,0,0-0.1
	c-0.2-1.7-0.3-3.5-0.4-5.2l-0.3-5.2c-0.2-3.5-0.3-6.9-0.4-10.4c-0.2-6.9,0-13.9,0-20.8l0.1-20.8l0.2-20.9c0,0,0-0.1,0-0.1
	c0,0,0,0,0.1,0C430,294.8,430,294.8,430.1,294.9C430,294.8,430.1,294.8,430.1,294.9L430.1,294.9z"/>
<path d="M354.4,355.9c4.8,0,8.8-0.7,8.8-1.7s-3.9-1.7-8.8-1.7c-4.8,0-8.8,0.7-8.8,1.7S349.6,355.9,354.4,355.9z"/>
<path d="M430.3,378.6c4.8,0,8.8-0.7,8.8-1.7s-3.9-1.7-8.8-1.7c-4.8,0-8.8,0.7-8.8,1.7S425.4,378.6,430.3,378.6z"/>
<path d="M338.5,237.7h-4.8c-0.1,0-0.2,0-0.2-0.1c-0.1-0.1-0.1-0.2-0.1-0.2c0-0.1,0-0.2,0.1-0.2c0.1-0.1,0.2-0.1,0.2-0.1h4.8
	c0.1,0,0.2,0,0.2,0.1c0.1,0.1,0.1,0.2,0.1,0.2c0,0.1,0,0.2-0.1,0.2C338.6,237.7,338.5,237.7,338.5,237.7L338.5,237.7z"/>
</svg>
