<svg width="700" height="550" viewBox="0 0 700 550" fill="none" xmlns="http://www.w3.org/2000/svg">
<path d="M488.5 259L527 274.825C525.005 275.362 523.041 275.972 521.061 276.538L515.196 278.397C511.281 279.631 507.396 280.981 503.525 282.331C499.655 283.711 495.784 285.09 491.958 286.585C488.19 288.037 484.408 289.518 480.7 291.13C478.632 278.092 475.53 264.169 471.467 260.931L488.5 259ZM527 274.825V301.714C519.879 304.966 503.924 310.105 483.788 316C483.788 316 482.739 304.008 480.7 291.159C484.615 290.084 488.5 288.879 492.342 287.631C496.256 286.397 500.142 285.046 504.012 283.696C507.883 282.317 511.754 280.938 515.58 279.442L521.312 277.206C523.203 276.408 525.124 275.667 527 274.825ZM250.723 289.039C252.185 288.603 253.619 288.124 255.037 287.558L253.072 295.224C251.161 293.373 249.133 291.642 247 290.041C248.241 289.736 249.497 289.416 250.723 289.039Z" fill="black"/>
<path d="M381.62 318.219C361.01 314.934 304.634 296.776 294.485 289.135C287.017 283.503 278.468 274.277 277.357 252.277C275.728 262.294 274.054 272.312 272.335 282.329L272.275 282.681C273.536 281.977 274.894 281.459 276.305 281.141C277.891 280.741 279.535 280.612 281.165 280.76C279.776 281.616 278.246 282.226 276.646 282.564C275.204 282.923 273.715 283.061 272.231 282.975L268.186 306.222C271.875 308.7 275.535 311.194 279.15 313.76L284.84 317.779L290.485 321.871C294.248 324.599 298.026 327.298 301.73 330.114C305.434 332.915 309.182 335.644 312.857 338.504L312.872 338.518C312.954 338.593 313.01 338.69 313.035 338.797C315.879 337.99 318.754 337.242 321.613 336.465L330.755 334.147C336.86 332.622 342.978 331.214 349.083 329.747C355.232 328.383 361.351 326.961 367.5 325.67C373.649 324.365 379.797 323.089 385.991 321.974C379.946 323.675 373.841 325.23 367.752 326.755C361.662 328.295 355.528 329.689 349.424 331.17C343.29 332.519 337.171 333.942 331.022 335.248L321.791 337.169C318.872 337.726 315.968 338.313 313.05 338.841C313.05 338.856 313.08 338.87 313.08 338.885C313.613 344.796 314.116 350.706 314.472 356.632C313.538 350.853 312.753 345.06 311.998 339.252C308.249 336.626 304.59 333.898 300.886 331.229C297.107 328.53 293.403 325.714 289.684 322.942L284.099 318.762L278.587 314.509C275.075 311.824 271.608 309.067 268.171 306.28L266.985 313.115C266.956 313.28 266.861 313.427 266.722 313.523C266.583 313.619 266.412 313.657 266.245 313.628C266.209 313.626 266.173 313.616 266.141 313.599L250.08 308.07C249.919 308.009 249.784 307.893 249.703 307.742C249.621 307.591 249.597 307.415 249.636 307.248L252.777 295.016C250.033 293.531 247.399 291.855 244.895 290C242.924 291.408 240.983 292.831 238.998 294.224C236.835 295.706 234.701 297.231 232.508 298.698C234.523 297.011 236.568 295.368 238.612 293.711C240.509 292.171 242.435 290.675 244.361 289.164C244.375 289.056 244.411 288.951 244.465 288.856C243.324 284.515 242.316 280.144 241.264 275.773C240.153 271.256 239.131 266.709 238.138 262.162C237.101 257.616 236.108 253.069 235.19 248.493C234.227 243.931 233.338 239.37 232.508 234.779C233.782 239.267 234.997 243.77 236.123 248.287C237.309 252.79 238.405 257.322 239.472 261.854C240.568 266.386 241.635 270.919 242.613 275.465C243.576 279.777 244.554 284.089 245.442 288.416C247.028 288.049 248.613 287.712 250.214 287.433C251.754 287.169 253.295 286.964 254.866 286.832L256.599 280.1L263.652 252.952L263.667 252.908V252.893C264.552 250.52 265.25 248.083 265.756 245.603C266.334 243.191 266.319 240.676 265.711 238.27C265.34 237.127 264.664 236.104 263.756 235.307C263.279 234.911 262.774 234.548 262.245 234.222L261.415 233.679L260.985 233.327C260.926 233.313 260.882 233.269 260.718 233.21C258.232 232.649 255.706 232.282 253.162 232.11C242.85 231.186 232.493 230.643 222.152 230.086C227.322 230.159 232.508 230.306 237.694 230.497C242.879 230.687 248.051 230.893 253.236 231.289C254.525 231.391 255.829 231.509 257.118 231.655C258.45 231.757 259.77 231.983 261.059 232.33C261.273 232.397 261.474 232.502 261.652 232.638L261.978 232.902L262.778 233.401C263.354 233.74 263.904 234.123 264.422 234.545C265.485 235.443 266.283 236.609 266.734 237.918C267.443 240.493 267.519 243.199 266.956 245.809C266.476 248.355 265.782 250.857 264.882 253.289L257.977 280.437L251.132 306.985L265.86 312.147L271.505 282.183C273.416 272.18 275.367 262.182 277.357 252.189C277.028 242.562 277.713 232.928 279.402 223.442L252.273 220.626C249.54 220.378 246.952 219.296 244.865 217.531C242.645 217.21 240.444 216.769 238.272 216.211C237.709 216.079 237.146 215.932 236.582 215.756C236.301 215.668 236.019 215.58 235.724 215.478C235.69 215.463 235.655 215.453 235.619 215.448H235.575C235.475 215.459 235.376 215.479 235.279 215.507C234.233 215.831 233.221 216.253 232.256 216.768C230.212 217.751 228.197 218.836 226.152 219.863C224.122 220.934 222.047 221.946 219.944 222.914C223.557 220.029 227.465 217.527 231.604 215.448C232.685 214.905 233.816 214.468 234.983 214.143C235.173 214.106 235.366 214.086 235.56 214.084C235.794 214.097 236.024 214.147 236.242 214.231C236.479 214.348 236.746 214.436 236.998 214.539L238.612 215.126C240.672 215.844 242.732 216.607 244.776 217.443C242.628 215.419 241.087 212.148 241.991 206.809L243.368 170.597L237.812 169.467C237.812 169.467 233.723 170.377 241.798 147.291L254.703 110.55C254.703 110.55 204.016 116.74 202.179 118.559C200.342 120.377 212.832 242.934 230.108 301.484C230.108 301.484 308.723 357.131 313.494 358.949C315.82 359.815 359.395 349.475 407 337.052C407 337.051 402.214 321.505 381.62 318.219ZM215.469 146.074C214.269 138.857 213.114 131.641 212.106 124.396C213.706 131.539 215.158 138.711 216.58 145.883C218.003 153.055 219.307 160.257 220.67 167.443C221.914 174.645 223.233 181.846 224.418 189.062L226.181 199.886C226.715 203.509 227.292 207.117 227.782 210.74C226.967 207.176 226.241 203.597 225.456 200.018L223.292 189.253C221.87 182.081 220.581 174.879 219.218 167.693C217.973 160.491 216.655 153.304 215.469 146.074V146.074ZM352.446 61.0935C349.75 61.0935 346.312 62.5455 342.89 63.2789C339.467 64.0122 331.63 62.5455 330.889 60.3748C330.148 58.1895 325.525 40.1785 324.769 41.0292C324.028 41.8798 322.562 43.3906 322.562 43.3906C322.562 43.3906 322.31 65.3322 322.799 67.6936C323.303 70.0697 332.355 81.9499 345.823 80.7325C359.292 79.5152 361.262 63.7629 361.262 63.7629C361.262 63.7629 355.128 61.0935 352.446 61.0935ZM354.669 67.6056C353.68 68.2087 352.523 68.486 351.365 68.3976C350.24 68.3126 349.149 67.9712 348.179 67.4003C347.236 66.8592 346.43 66.1117 345.823 65.2149C347.582 66.1164 349.488 66.7024 351.454 66.9456C352.374 67.0139 353.298 66.889 354.165 66.5789C355.105 66.2181 356.004 65.761 356.847 65.2149C356.375 66.2071 355.617 67.039 354.669 67.6056V67.6056Z" fill="black"/>
<path d="M322.91 43.7839C322.91 43.7839 335.224 32.5237 334.239 18.6282C334.239 18.6282 337.44 15.7533 342.612 20.5448C342.612 20.5448 347.045 21.7427 352.216 16.472C357.388 11.2013 360.097 18.8677 360.097 18.8677C360.097 18.8677 362.806 27.0134 363.545 24.8572C364.283 22.701 365.515 12.3991 354.433 9.04504C345.815 6.54768 336.807 5.57396 327.835 6.17011C324.88 6.64926 318.724 11.4408 318.724 18.149C318.724 24.8572 315.768 33.2424 316.015 35.8778C316.261 38.5132 322.91 43.7839 322.91 43.7839ZM333.992 40.909C336.381 40.0211 338.945 39.6716 341.492 39.8866C342.774 39.9937 344.035 40.2614 345.246 40.6831C346.45 41.114 347.561 41.7593 348.522 42.586C347.386 42.1078 346.212 41.7204 345.012 41.4279C343.824 41.163 342.619 40.9801 341.405 40.8807C338.937 40.7167 336.459 40.7261 333.992 40.909ZM354.925 41.4453C355.913 40.3927 357.129 39.5672 358.485 39.0288C359.831 38.4095 361.346 38.2287 362.806 38.5132C361.474 38.9263 360.164 39.4054 358.882 39.9487C357.598 40.4619 356.333 41.0201 354.925 41.4453ZM343.351 46C343.75 45.9866 344.128 45.823 344.405 45.5436C344.682 45.2643 344.837 44.8911 344.837 44.5026C344.837 44.1142 344.682 43.741 344.405 43.4617C344.128 43.1823 343.75 43.0187 343.351 43.0053C342.951 43.0187 342.573 43.1823 342.296 43.4617C342.019 43.741 341.864 44.1142 341.864 44.5026C341.864 44.8911 342.019 45.2643 342.296 45.5436C342.573 45.823 342.951 45.9866 343.351 46V46ZM359.112 45.0417C359.511 45.0283 359.889 44.8647 360.166 44.5853C360.444 44.306 360.599 43.9327 360.599 43.5443C360.599 43.1559 360.444 42.7827 360.166 42.5033C359.889 42.224 359.511 42.0604 359.112 42.047C358.713 42.0604 358.335 42.224 358.057 42.5033C357.78 42.7827 357.625 43.1559 357.625 43.5443C357.625 43.9327 357.78 44.306 358.057 44.5853C358.335 44.8647 358.713 45.0283 359.112 45.0417V45.0417Z" fill="black"/>
<path d="M315.161 36.2301C314.62 36.4518 314.136 36.7907 313.745 37.2216C313.354 37.6526 313.067 38.1646 312.904 38.7198C312.591 39.8167 312.593 40.9776 312.909 42.0734C313.63 44.3152 314.48 46.5146 315.455 48.661C316.327 50.905 317.014 53.2143 317.511 55.5667C317.711 56.6709 318.265 57.6829 319.092 58.4543C319.534 58.833 320.052 59.115 320.612 59.2819C321.173 59.4488 321.763 59.4967 322.344 59.4225C321.743 59.5956 321.11 59.6332 320.492 59.5328C319.874 59.4323 319.286 59.1963 318.773 58.8421C317.763 58.0471 317.045 56.947 316.73 55.7109C316.125 53.4365 315.377 51.2014 314.49 49.0186C314.078 47.9092 313.656 46.8018 313.207 45.7041C312.712 44.5878 312.352 43.4182 312.133 42.2194C311.883 40.9917 311.987 39.7195 312.432 38.5467C312.669 37.9758 313.04 37.4683 313.515 37.0657C313.989 36.6631 314.553 36.3767 315.161 36.2301V36.2301ZM355.534 52.831C356.125 54.3755 356.107 56.0826 355.482 57.6145C355.139 58.4344 354.5 59.1002 353.688 59.4838C352.891 59.7983 352.002 59.8058 351.199 59.5049C351.944 59.411 352.661 59.1661 353.305 58.7857C353.855 58.3796 354.282 57.8325 354.539 57.2039C355.055 55.7932 355.39 54.324 355.534 52.831V52.831ZM362.964 25C362.754 28.3523 362.747 31.7139 362.944 35.067C363.046 36.7298 363.241 38.3858 363.526 40.0278C363.827 41.6387 364.303 43.2891 364.59 44.9719C365.172 48.3516 365.134 51.8068 364.479 55.1734C363.767 58.4904 362.677 61.7175 361.23 64.7934C362.296 61.6073 363.121 58.3475 363.696 55.0409C364.216 51.7566 364.174 48.4098 363.573 45.139C363.325 43.4943 362.891 41.8896 362.602 40.1838C362.32 38.5031 362.171 36.8036 362.154 35.1002C362.089 31.7155 362.36 28.3326 362.964 25V25ZM322.344 68.7538C322.139 70.707 321.4 72.5689 320.207 74.1414C319.599 74.9403 318.853 75.6278 318.004 76.1728C317.144 76.697 316.157 76.9828 315.146 77C316.004 76.617 316.806 76.1228 317.531 75.5304C318.213 74.9251 318.834 74.255 319.383 73.5298C319.942 72.7928 320.458 72.0242 320.926 71.2279C321.397 70.4217 321.882 69.6076 322.344 68.7538Z" fill="black"/>
<path d="M321.917 71.2015C314.526 72.7048 307.294 74.9042 300.317 77.7704C296.7 79.0855 292.918 79.8906 289.08 80.1626C285.35 80.3806 281.636 80.8081 277.954 81.4431C277.123 81.6245 276.326 81.9351 275.591 82.3638C274.747 82.8876 273.857 83.3334 272.933 83.6957C271.251 84.3213 269.701 85.2581 268.365 86.4573C265.814 89.1151 263.717 92.1751 262.158 95.5147C261.275 97.162 260.569 98.9078 259.793 100.618C259.09 102.362 258.385 104.11 257.726 105.876C257.105 107.656 256.446 109.425 255.854 111.218L254.166 116.628L254.162 116.641L254.155 116.662C250.637 125.475 247.441 134.411 244.566 143.469C243.142 147.994 241.796 152.545 240.647 157.132C240.081 159.426 239.546 161.727 239.146 164.032C238.943 165.169 238.803 166.317 238.727 167.47C238.694 168.017 238.703 168.564 238.753 169.109C238.765 169.491 238.879 169.862 239.085 170.184L238.667 169.97C247.023 171.614 255.385 173.255 263.758 174.803L276.308 177.148L282.588 178.21C284.627 178.564 286.682 178.817 288.745 178.965L289.355 178.972C289.357 178.938 289.341 178.975 289.378 178.952C289.419 178.91 289.466 178.873 289.516 178.843C289.795 178.518 290.028 178.157 290.207 177.768C290.635 176.855 290.989 175.908 291.266 174.938C291.83 172.917 292.282 170.867 292.619 168.796C293.327 164.631 293.705 160.398 293.998 156.163C294.264 151.924 294.351 147.675 294.257 143.416C294.196 139.161 293.943 134.904 293.467 130.665C293.464 130.639 293.472 130.613 293.488 130.593C293.504 130.572 293.528 130.559 293.554 130.555C293.579 130.551 293.606 130.558 293.627 130.573C293.648 130.588 293.663 130.611 293.668 130.637C294.38 134.85 294.872 139.105 295.172 143.377C295.434 147.651 295.511 151.934 295.405 156.226C295.299 160.524 294.947 164.812 294.35 169.069C294.052 171.219 293.633 173.351 293.097 175.454C292.814 176.543 292.443 177.607 291.986 178.636C291.728 179.221 291.384 179.765 290.964 180.248C290.814 180.387 290.651 180.522 290.488 180.649C290.268 180.782 290.032 180.886 289.785 180.957C289.44 180.991 289.13 180.99 288.8 181C286.612 180.871 284.433 180.622 282.273 180.254L275.945 179.216C271.741 178.471 267.54 177.725 263.356 176.899C254.992 175.227 246.642 173.496 238.306 171.706L238.237 171.691C238.103 171.662 237.981 171.592 237.888 171.491C237.351 170.879 237.048 170.096 237.032 169.282C236.986 168.643 236.99 168.001 237.042 167.362C237.149 166.147 237.324 164.938 237.566 163.743C238.028 161.376 238.627 159.06 239.291 156.767C240.613 152.181 242.124 147.668 243.68 143.175C245.263 138.69 246.856 134.213 248.495 129.753L253.459 116.388L253.448 116.422C255.343 109.054 257.804 101.844 260.81 94.8573C262.32 91.2636 264.479 87.9801 267.18 85.1724C268.651 83.8208 270.36 82.7545 272.22 82.0276C273.052 81.6918 273.859 81.2949 274.633 80.8402C275.536 80.3189 276.516 79.9452 277.537 79.7332C281.309 79.1268 285.114 78.7392 288.931 78.5725C290.798 78.4082 292.658 78.2087 294.484 77.8734C296.314 77.5913 298.114 77.1444 299.864 76.5381C306.967 73.85 314.356 71.992 321.885 71.001C321.911 70.9972 321.938 71.0042 321.96 71.0203C321.981 71.0365 321.996 71.0605 321.999 71.0872C322.002 71.1131 321.995 71.1391 321.98 71.1602C321.965 71.1813 321.942 71.1961 321.917 71.2015V71.2015Z" fill="black"/>
<path d="M345.151 91.9921C344.985 92.8726 344.943 93.7719 345.026 94.664C345.08 95.5668 345.139 96.4683 345.225 97.3695L345.78 102.771C346.178 106.37 346.653 109.961 347.095 113.556L347.798 118.943C348.241 120.838 347.95 122.829 346.983 124.52C346.665 124.921 346.271 125.257 345.822 125.506C345.374 125.756 344.88 125.915 344.37 125.974C343.86 126.033 343.343 125.991 342.849 125.851C342.355 125.711 341.894 125.475 341.491 125.157C341.088 124.843 340.754 124.45 340.509 124.002C340.265 123.554 340.115 123.061 340.069 122.553L339.776 119.853C339.369 116.255 338.937 112.659 338.386 109.082C338.123 107.296 337.765 105.525 337.314 103.776C337.204 103.35 337.051 102.936 336.86 102.54C336.822 102.452 336.764 102.374 336.69 102.312C336.617 102.25 336.53 102.205 336.436 102.183L335.812 101.913C334.978 101.555 334.134 101.218 333.286 100.892C329.899 99.577 326.487 98.32 323.044 97.1678C321.337 96.6295 319.563 95.8607 317.923 96.3991C317.16 96.7641 316.527 97.3511 316.107 98.0826C315.687 98.814 315.5 99.6553 315.571 100.495C315.569 100.59 315.53 100.681 315.461 100.747C315.393 100.813 315.301 100.849 315.205 100.848C315.143 100.846 315.082 100.829 315.028 100.797C314.974 100.765 314.929 100.72 314.898 100.667C313.944 99.0142 312.871 97.433 311.687 95.9352C310.543 94.4329 309.203 93.0881 307.704 91.9359C306.971 91.3865 306.152 90.9614 305.28 90.6775C304.323 90.3762 303.402 89.9695 302.535 89.465C300.767 88.4584 299.273 87.0368 298.183 85.3238C298.168 85.3001 298.156 85.2747 298.148 85.248L298.139 85.2167C297.866 84.2092 297.998 83.1357 298.507 82.2235C298.976 81.3815 299.591 80.6285 300.323 79.9994C301.728 78.8022 303.277 77.7829 304.933 76.9647C308.181 75.3241 311.581 74.0023 315.086 73.0179C315.175 72.9923 315.27 72.9942 315.358 73.0233C315.446 73.0524 315.523 73.1073 315.579 73.1809C315.635 73.2545 315.667 73.3432 315.671 73.4354C315.676 73.5276 315.652 73.619 315.603 73.6974L315.59 73.7189C315.029 74.6618 314.665 75.7084 314.521 76.7952C314.439 77.3484 314.394 77.9065 314.386 78.4657C314.435 79.0243 314.431 79.5906 314.531 80.1457C314.909 82.3996 315.756 84.5498 317.018 86.4585C317.634 87.4301 318.301 88.3688 319.017 89.2706C319.799 90.1196 320.533 91.0161 321.349 91.837C322.192 92.6305 322.993 93.4745 323.874 94.2305L326.554 96.4645C326.559 96.4684 326.564 96.4733 326.567 96.479C326.571 96.4847 326.573 96.4909 326.574 96.4975C326.575 96.504 326.575 96.5107 326.573 96.5172C326.571 96.5236 326.569 96.5296 326.565 96.535C326.556 96.5453 326.544 96.5521 326.531 96.554C326.518 96.5559 326.504 96.5527 326.493 96.5452L323.711 94.423C322.792 93.7022 321.95 92.8891 321.064 92.1246C320.197 91.3389 319.439 90.4398 318.625 89.597C317.873 88.6939 317.169 87.7518 316.517 86.7745C315.161 84.8179 314.23 82.6004 313.785 80.2644C313.666 79.6794 313.653 79.0751 313.59 78.4795C313.584 77.8772 313.618 77.2752 313.693 76.6776C313.826 75.4504 314.216 74.2645 314.837 73.1962L315.34 73.897C311.926 74.9482 308.606 76.2811 305.415 77.8818C303.841 78.6656 302.37 79.6396 301.035 80.782C300.371 81.2356 299.845 81.8619 299.514 82.5928C299.183 83.3237 299.06 84.131 299.158 84.9269L299.114 84.8203C300.101 86.3774 301.448 87.6761 303.043 88.6076C303.842 89.0837 304.692 89.4695 305.578 89.7581C306.544 90.0831 307.45 90.5636 308.26 91.1807C309.821 92.3926 311.201 93.8205 312.356 95.421C313.532 96.9778 314.592 98.6177 315.528 100.328L314.856 100.5C314.881 99.5354 315.121 98.5889 315.559 97.7287C315.775 97.2832 316.079 96.886 316.454 96.5608C316.828 96.2357 317.265 95.9895 317.738 95.8369C319.702 95.2714 321.525 96.1585 323.206 96.6998C326.642 97.9095 330.037 99.2209 333.408 100.59L335.935 101.621L336.566 101.884C336.692 101.923 336.808 101.986 336.909 102.07C337.009 102.155 337.092 102.259 337.151 102.375C337.361 102.792 337.529 103.229 337.651 103.679C338.157 105.438 338.472 107.227 338.81 109.01C339.469 112.581 340.009 116.169 340.517 119.76L340.888 122.456C340.927 122.853 341.047 123.238 341.241 123.587C341.435 123.936 341.699 124.242 342.016 124.485C342.646 124.977 343.445 125.2 344.239 125.106C345.033 125.013 345.758 124.61 346.254 123.986C346.695 123.28 346.963 122.481 347.039 121.653C347.13 120.786 347.099 119.91 346.947 119.052L346.304 113.651C345.876 110.05 345.534 106.439 345.227 102.824C345.07 101.017 344.943 99.2069 344.872 97.3925C344.828 96.4862 344.811 95.5774 344.799 94.6695C344.754 93.753 344.843 92.835 345.063 91.9439C345.067 91.9316 345.075 91.9214 345.087 91.9155C345.098 91.9096 345.112 91.9084 345.124 91.9122C345.137 91.9161 345.147 91.9246 345.153 91.936C345.159 91.9474 345.161 91.9608 345.157 91.9732L345.151 91.9921Z" fill="black"/>
<path d="M350.485 80.8302C351.197 81.8312 351.825 82.8886 352.363 83.9918C352.632 84.5465 352.827 85.1373 353.063 85.7126C353.256 86.3091 353.399 86.9207 353.489 87.5409C353.714 88.8121 353.608 90.1192 353.182 91.3385C352.704 92.5875 351.796 93.6273 350.618 94.2723C350.572 94.2968 350.522 94.3121 350.47 94.3173C350.418 94.3225 350.366 94.3175 350.316 94.3026C350.266 94.2877 350.22 94.2632 350.179 94.2304C350.139 94.1977 350.106 94.1574 350.081 94.1118C350.057 94.0677 350.042 94.0194 350.036 93.9696L350.035 93.9557C349.871 92.2035 349.496 90.4773 348.916 88.8143C348.626 87.9933 348.169 87.2405 347.573 86.6031C347.282 86.3144 346.907 86.1236 346.501 86.0574C346.303 86.0821 346.111 86.146 345.938 86.2454C345.764 86.3449 345.613 86.4778 345.492 86.6363C344.486 88.0784 343.758 89.6937 343.345 91.3999C342.833 93.0902 342.403 94.8188 342.029 96.5372L342.036 96.3729L342.495 99.5082C342.514 99.643 342.48 99.7801 342.4 99.8905C342.32 100.001 342.2 100.076 342.065 100.1C341.93 100.124 341.791 100.095 341.677 100.019C341.564 99.9434 341.484 99.8265 341.455 99.6933L341.453 99.6816C341.174 98.2062 341.012 96.7111 340.97 95.2104C340.889 93.7223 340.927 92.2374 340.995 90.7577C341.121 87.8014 341.43 84.8556 341.92 81.937C341.922 81.9238 341.93 81.912 341.941 81.9042C341.952 81.8964 341.965 81.8933 341.979 81.8954C341.991 81.8976 342.002 81.9041 342.01 81.9137C342.017 81.9233 342.021 81.9353 342.021 81.9476C341.924 84.8969 341.876 87.8391 341.876 90.7742C341.837 93.6849 342.042 96.5938 342.488 99.4708L341.447 99.6442L341.079 96.4972L341.078 96.4809C341.072 96.4313 341.075 96.381 341.087 96.3324C341.508 94.5821 342.033 92.8582 342.659 91.1696C343.234 89.442 344.101 87.8248 345.225 86.3881C345.382 86.1966 345.577 86.0392 345.797 85.9254C346.018 85.8116 346.26 85.7439 346.508 85.7264C346.992 85.8043 347.438 86.0328 347.782 86.379C348.436 87.0289 348.946 87.8063 349.282 88.6622C350.008 90.325 350.533 92.0669 350.849 93.8521L350.266 93.5357C351.214 92.9411 351.943 92.0578 352.345 91.0177C352.755 89.9404 352.882 88.7769 352.713 87.6374C352.683 87.0549 352.499 86.4847 352.411 85.9004C352.227 85.3362 352.086 84.7543 351.866 84.1968C351.625 83.6488 351.437 83.0736 351.181 82.5263L350.398 80.8825C350.395 80.8766 350.393 80.8702 350.393 80.8636C350.392 80.857 350.393 80.8504 350.394 80.844C350.396 80.8377 350.4 80.8318 350.404 80.8267C350.408 80.8216 350.413 80.8173 350.419 80.8142C350.43 80.8089 350.443 80.8075 350.455 80.8105C350.467 80.8134 350.477 80.8204 350.485 80.8302V80.8302ZM343.155 104.826C343.548 104.813 343.921 104.648 344.195 104.366C344.468 104.085 344.621 103.709 344.621 103.318C344.621 102.926 344.468 102.55 344.195 102.269C343.921 101.987 343.548 101.823 343.155 101.809C342.761 101.823 342.388 101.987 342.115 102.269C341.841 102.55 341.688 102.926 341.688 103.318C341.688 103.709 341.841 104.085 342.115 104.366C342.388 104.648 342.761 104.813 343.155 104.826V104.826ZM344.248 113.154C344.641 113.14 345.014 112.975 345.288 112.694C345.561 112.412 345.714 112.036 345.714 111.645C345.714 111.254 345.561 110.878 345.288 110.596C345.014 110.315 344.641 110.15 344.248 110.136C343.854 110.15 343.481 110.315 343.208 110.596C342.934 110.878 342.781 111.254 342.781 111.645C342.781 112.036 342.934 112.412 343.208 112.694C343.481 112.975 343.854 113.14 344.248 113.154ZM345.159 121.119C345.552 121.105 345.925 120.941 346.199 120.659C346.472 120.378 346.625 120.002 346.625 119.61C346.625 119.219 346.472 118.843 346.199 118.562C345.925 118.28 345.552 118.115 345.159 118.102C344.765 118.115 344.392 118.28 344.119 118.562C343.845 118.843 343.692 119.219 343.692 119.61C343.692 120.002 343.845 120.378 344.119 120.659C344.392 120.941 344.765 121.105 345.159 121.119V121.119ZM354.84 78C360.908 78.1501 366.969 78.5502 373.014 79.1679C376.039 79.4589 379.051 79.8803 382.055 80.3882C385.111 80.8115 388.101 81.6201 390.952 82.7945C391.325 82.9786 391.675 83.2062 391.994 83.4723C392.289 83.7369 392.567 84.0185 392.828 84.3155C393.33 84.8548 393.877 85.3707 394.419 85.9024C395.542 86.9602 396.555 88.1271 397.443 89.3857C399.142 91.9463 400.404 94.7682 401.178 97.7373C402.703 103.595 403.648 109.587 404 115.628C403.265 109.657 402.072 103.75 400.432 97.9593C399.603 95.1027 398.341 92.3884 396.688 89.91C395.821 88.7083 394.835 87.5961 393.744 86.5905C393.202 86.0696 392.642 85.5523 392.109 84.9911C391.667 84.445 391.112 83.9993 390.482 83.6842C387.731 82.532 384.845 81.7268 381.893 81.2874C378.924 80.7399 375.923 80.3424 372.924 79.9327C366.917 79.1574 360.882 78.564 354.84 78ZM271.562 90.7593C274.359 90.1709 277.272 90.5056 279.861 91.7125C282.456 92.9505 284.672 94.8529 286.282 97.2242C287.087 98.3904 287.788 99.6239 288.377 100.911C288.935 102.2 289.423 103.519 289.839 104.86C290.144 106.228 290.52 107.576 290.76 108.948C290.919 110.335 291.11 111.713 291.236 113.093C290.883 111.744 290.596 110.392 290.275 109.05C289.939 107.713 289.484 106.409 289.097 105.094C288.58 103.825 288.122 102.531 287.542 101.298C286.948 100.076 286.25 98.9062 285.456 97.8021C283.965 95.5361 281.924 93.6797 279.521 92.4044C277.074 91.1276 274.317 90.5577 271.562 90.7593V90.7593ZM307.51 154.368C308.208 156.214 308.943 158.04 309.798 159.814C310.606 161.606 311.494 163.36 312.434 165.083C314.296 168.534 316.423 171.836 318.797 174.96C321.138 178.103 323.8 180.996 326.741 183.593L328.987 185.497C329.756 186.107 330.587 186.635 331.383 187.213L332.582 188.079C332.997 188.343 333.431 188.577 333.855 188.828L336.414 190.333C332.742 188.777 329.314 186.705 326.235 184.181C323.166 181.63 320.4 178.739 317.991 175.565C315.614 172.377 313.525 168.988 311.746 165.436C309.963 161.897 308.544 158.189 307.51 154.368V154.368ZM244.276 171.421C244.232 177.436 244.098 183.448 243.999 189.461C243.918 195.475 243.713 201.484 243.575 207.496L243.571 207.547L243.562 207.602C243.192 210.004 243.501 212.462 244.454 214.7C245.465 216.863 247.279 218.553 249.516 219.416C250.091 219.601 250.654 219.816 251.235 219.984L253.038 220.331C254.286 220.513 255.575 220.648 256.848 220.786C259.402 221.056 261.962 221.296 264.527 221.507C274.782 222.363 285.069 222.803 295.351 223.032C305.629 223.267 315.912 222.929 326.152 222.02C336.327 221.044 346.662 219.494 355.906 215.095C355.996 215.052 356.099 215.044 356.195 215.072C356.291 215.099 356.374 215.161 356.427 215.245C357.155 216.373 358.165 217.295 359.357 217.921C360.574 218.559 361.917 218.922 363.292 218.983C364.685 219.035 366.078 218.889 367.43 218.549C368.1 218.353 368.773 218.149 369.44 217.93L371.392 217.125L369.483 218.038C368.827 218.295 368.161 218.538 367.492 218.773C366.128 219.198 364.706 219.412 363.276 219.409C361.808 219.429 360.356 219.095 359.046 218.436C357.736 217.777 356.605 216.813 355.751 215.626L356.272 215.777C351.652 218.169 346.736 219.945 341.649 221.06C336.594 222.213 331.477 223.078 326.323 223.649C316.025 224.694 305.674 225.133 295.324 224.965C284.982 224.899 274.659 224.247 264.365 223.334C261.791 223.103 259.22 222.84 256.65 222.546C255.362 222.395 254.085 222.252 252.785 222.052L250.795 221.65C250.141 221.458 249.498 221.211 248.851 220.99C246.243 219.926 244.157 217.891 243.04 215.318C242.023 212.786 241.745 210.021 242.237 207.339L242.225 207.445C242.545 201.44 242.799 195.433 243.176 189.43C243.536 183.427 243.861 177.422 244.276 171.421Z" fill="black"/>
<path d="M281.384 178C281.554 181.395 281.65 184.79 281.767 188.185L281.536 187.831C293.376 192.113 305.805 194.506 318.376 194.922C324.625 195.113 330.876 194.619 337.019 193.449L341.594 192.45C343.104 192.063 344.57 191.516 346.062 191.057L348.298 190.352C349.027 190.073 349.734 189.74 350.454 189.436L354.766 187.573L354.4 188.131C354.569 187.1 354.97 186.121 355.573 185.271C356.132 184.447 356.829 183.727 357.633 183.144C359.204 182.021 361.009 181.277 362.91 180.969C363.834 180.807 364.765 180.693 365.701 180.628C366.633 180.628 367.565 180.547 368.491 180.616C369.416 180.693 370.345 180.692 371.26 180.835L374 181.245L371.241 181.089C370.324 181.043 369.404 181.086 368.49 181.079C367.574 181.073 366.667 181.217 365.76 181.278C364.863 181.403 363.973 181.575 363.094 181.792C361.368 182.207 359.746 182.977 358.329 184.055C356.983 185.074 356.067 186.569 355.766 188.24L355.76 188.286C355.745 188.394 355.705 188.497 355.642 188.586C355.579 188.675 355.496 188.748 355.4 188.798C349.737 191.833 343.678 194.048 337.402 195.378C331.124 196.66 324.718 197.185 318.317 196.943C311.939 196.707 305.596 195.875 299.371 194.456C296.27 193.724 293.195 192.896 290.167 191.916C287.122 190.979 284.137 189.852 281.231 188.54L281.214 188.532C281.148 188.502 281.093 188.453 281.055 188.391C281.017 188.33 280.998 188.258 281 188.185C281.118 184.79 281.213 181.395 281.384 178Z" fill="black"/>
<path d="M252 196.026C253.596 193.859 255.631 192.043 257.977 190.693C260.324 189.323 262.865 188.305 265.517 187.673C266.851 187.406 268.2 187.221 269.556 187.117C270.907 186.987 272.267 186.965 273.621 187.053C274.976 187.082 276.31 187.351 277.648 187.493C278.967 187.773 280.277 188.089 281.571 188.428C280.227 188.311 278.91 188.093 277.583 187.981C276.25 187.94 274.928 187.759 273.601 187.824C270.959 187.812 268.324 188.088 265.743 188.649C263.172 189.226 260.691 190.137 258.364 191.359C256.004 192.571 253.855 194.146 252 196.026ZM354.874 188.428C355.28 189.301 355.76 190.139 356.31 190.933C356.829 191.709 357.497 192.378 358.276 192.902C358.469 193.015 358.671 193.112 358.88 193.192C359.164 193.296 359.421 193.462 359.632 193.677C359.82 193.918 359.944 194.202 359.994 194.502C360.043 194.802 360.016 195.109 359.914 195.397C359.581 196.377 359.04 197.277 358.326 198.036L358.321 198.041L358.292 198.069C357.532 198.776 356.959 199.655 356.624 200.63C356.469 201.09 356.421 201.579 356.482 202.059C356.544 202.54 356.714 203.001 356.98 203.409C357.473 204.2 358.557 204.971 358.972 206.186C359.101 206.499 359.159 206.837 359.141 207.175C359.123 207.512 359.031 207.842 358.871 208.141C358.522 208.694 357.997 209.118 357.378 209.346L357.514 209.254C356.713 210.088 356.1 211.081 355.716 212.165C355.529 212.707 355.472 213.283 355.549 213.85C355.677 214.422 355.949 214.953 356.34 215.395C355.862 215.003 355.505 214.487 355.31 213.905C355.156 213.299 355.146 212.665 355.281 212.054C355.411 211.448 355.634 210.864 355.942 210.323C356.236 209.775 356.584 209.257 356.98 208.775C357.003 208.746 357.033 208.723 357.067 208.706L357.116 208.682C357.547 208.485 357.902 208.158 358.132 207.749C358.223 207.551 358.27 207.336 358.271 207.118C358.271 206.901 358.225 206.685 358.135 206.487C357.804 205.549 356.909 204.967 356.165 203.925C355.806 203.404 355.571 202.809 355.479 202.186C355.406 201.563 355.475 200.931 355.679 200.336C356.088 199.205 356.779 198.193 357.687 197.393L357.653 197.426C358.282 196.772 358.78 196.006 359.121 195.169C359.2 195.006 359.238 194.826 359.229 194.646C359.221 194.465 359.168 194.29 359.074 194.134C358.949 193.996 358.796 193.885 358.626 193.808C358.385 193.698 358.154 193.567 357.936 193.419C357.119 192.811 356.455 192.026 355.996 191.125C355.521 190.27 355.145 189.365 354.874 188.428V188.428ZM373.078 189.441C373.048 190.053 373.017 190.655 372.987 191.257C371.755 191.247 370.513 191.197 369.281 191.066C367.83 190.951 366.393 190.712 364.984 190.354C366.393 189.996 367.83 189.758 369.281 189.642C370.543 189.512 371.816 189.461 373.078 189.441ZM372.753 196.193C372.712 196.805 372.691 197.407 372.661 197.999C371.531 197.979 370.411 197.929 369.281 197.808C367.83 197.693 366.393 197.454 364.984 197.096C366.393 196.738 367.83 196.5 369.281 196.384C370.441 196.263 371.592 196.213 372.753 196.193ZM372.447 202.694C372.427 203.306 372.396 203.908 372.376 204.5C371.348 204.47 370.309 204.42 369.281 204.309C367.83 204.193 366.393 203.955 364.984 203.597C366.393 203.239 367.83 203.001 369.281 202.885C370.339 202.774 371.398 202.724 372.447 202.694ZM369.281 210.65C370.238 210.549 371.195 210.499 372.142 210.469C372.111 211.081 372.091 211.673 372.07 212.245C371.144 212.225 370.207 212.175 369.281 212.074C367.83 211.958 366.393 211.72 364.984 211.362C366.393 211.004 367.83 210.766 369.281 210.65V210.65ZM337.897 225.582C337.897 225.582 319.553 207.718 312.705 219.303C305.856 230.887 310.564 239.385 315.653 245.12C321.852 252.106 322.163 254.198 324.003 256.267C325.842 258.336 346.605 283.348 372.483 281.943C387.579 281.123 387.322 273.196 384.487 266.733C382.426 262.155 379.115 258.232 374.923 255.401C366.656 249.708 348.183 236.523 337.897 225.582Z" fill="black"/>
<path d="M331 221C334.946 221.185 338.881 221.45 342.817 221.706L354.617 222.504C358.547 222.815 362.481 223.042 366.413 223.25C368.379 223.371 370.346 223.442 372.313 223.474C373.294 223.473 374.283 223.544 375.261 223.472L376.734 223.403L378.192 223.174C374.31 223.959 370.343 224.247 366.387 224.03C362.433 223.983 358.49 223.747 354.548 223.516C350.611 223.208 346.676 222.9 342.75 222.481C338.825 222.062 334.904 221.602 331 221ZM370.27 254C370.159 254 370.05 253.963 369.961 253.896C369.873 253.828 369.808 253.733 369.779 253.626C369.749 253.519 369.756 253.404 369.798 253.301C369.84 253.198 369.914 253.111 370.01 253.054C370.808 252.587 389.614 241.581 396.652 243.87C396.78 243.912 396.885 244.003 396.946 244.123C397.006 244.243 397.017 244.382 396.975 244.509C396.933 244.637 396.842 244.743 396.722 244.803C396.602 244.864 396.462 244.875 396.334 244.834C389.736 242.68 370.72 253.816 370.529 253.929C370.45 253.975 370.361 254 370.27 254V254Z" fill="black"/>
<path d="M482.739 178.274L482.749 178.274L482.786 178.281L527.209 194.568L527.248 194.585C531.665 196.627 535.866 199.096 539.792 201.956C543.757 204.82 547.25 208.274 550.147 212.195C551.637 214.173 552.808 216.368 553.617 218.701C554.398 221 555.009 223.352 555.446 225.738C556.436 230.588 556.094 235.613 554.455 240.288C553.536 242.615 552.186 244.751 550.474 246.587C548.749 248.395 546.734 249.909 544.511 251.069C542.303 252.222 539.949 253.077 537.512 253.612C536.3 253.865 535.073 254.045 533.839 254.151L530.234 254.54C520.621 255.557 511.011 256.591 501.389 257.517C482.147 259.38 462.899 261.206 443.61 262.61C438.788 262.965 433.963 263.299 429.133 263.572C424.292 263.812 419.489 264.146 414.569 263.931C412.042 263.726 409.64 262.759 407.686 261.161C405.767 259.629 404.08 257.832 402.675 255.827C399.9 251.855 397.666 247.538 396.031 242.988C396.009 242.928 396.002 242.863 396.012 242.8C396.022 242.737 396.047 242.677 396.086 242.626C396.126 242.575 396.177 242.535 396.236 242.509C396.295 242.483 396.36 242.472 396.424 242.478L396.437 242.479C398.503 242.742 400.594 242.735 402.658 242.46C403.628 242.275 404.656 241.891 404.937 241.076C405.111 240.133 404.923 239.159 404.409 238.346C403.395 236.535 402.208 234.823 400.865 233.234C399.552 231.6 398.192 229.996 396.844 228.38C395.494 226.764 394.154 225.138 392.856 223.476C391.626 221.806 390.139 220.337 388.45 219.122C387.658 218.498 386.729 218.068 385.737 217.868C384.745 217.667 383.719 217.701 382.743 217.967C380.845 218.725 379.297 220.149 378.394 221.966L378.384 221.986C378.351 222.046 378.3 222.095 378.239 222.128C378.178 222.16 378.108 222.173 378.039 222.167C377.97 222.16 377.904 222.133 377.851 222.09C377.797 222.047 377.757 221.989 377.736 221.923C377.07 219.891 376.721 217.77 376.703 215.634C376.698 214.544 376.872 213.461 377.218 212.427C377.577 211.353 378.259 210.412 379.172 209.731L379.12 209.775C379.956 209.051 380.916 208.48 381.954 208.09C382.941 207.682 383.949 207.326 384.974 207.022C387.01 206.406 389.071 205.907 391.139 205.453C395.278 204.554 399.446 203.836 403.622 203.181C411.976 201.884 420.364 200.858 428.76 199.925C445.556 198.063 462.383 196.582 479.24 195.354L478.508 196.044C479.57 189.402 480.948 182.991 482.25 176.484L486.301 157.049L494.442 118.188L494.818 119.204C493.908 118.704 492.921 118.352 491.897 118.162C490.783 117.91 489.64 117.702 488.484 117.535C486.173 117.188 483.827 116.952 481.479 116.745C476.779 116.336 472.052 116.095 467.324 115.883C457.865 115.468 448.386 115.275 438.907 115.164C419.948 114.947 400.974 115.112 382.015 115.371L382.7 115.074C382.068 115.857 381.579 116.745 381.256 117.695C380.869 118.706 380.542 119.762 380.25 120.832C379.667 122.974 379.211 125.172 378.8 127.377C377.988 131.794 377.37 136.261 376.825 140.736C375.747 149.691 374.964 158.691 374.288 167.697C373.62 176.706 373.06 185.724 372.608 194.749C372.104 203.762 371.77 212.801 371.428 221.824L371.428 221.833C371.423 221.949 371.373 222.058 371.287 222.138C371.202 222.217 371.088 222.26 370.971 222.257L332.099 221.258C332.072 221.257 332.047 221.246 332.028 221.227C332.01 221.207 332 221.182 332 221.155C332 221.129 332.012 221.103 332.031 221.085C332.05 221.066 332.076 221.056 332.103 221.056L370.987 221.369L370.53 221.801C370.762 212.757 371.026 203.729 371.438 194.687C371.806 185.662 372.28 176.632 372.858 167.599C373.448 158.573 374.145 149.55 375.141 140.545C375.646 136.042 376.223 131.544 377.003 127.06C377.399 124.819 377.839 122.581 378.422 120.353C378.715 119.239 379.045 118.128 379.457 117.022C379.855 115.823 380.476 114.708 381.288 113.734C381.369 113.644 381.468 113.571 381.578 113.52C381.689 113.469 381.809 113.441 381.931 113.437L381.974 113.436C391.468 113.193 400.957 113.107 410.45 113.038C419.942 112.978 429.435 112.989 438.93 113.069C448.425 113.165 457.921 113.342 467.42 113.744C472.169 113.955 476.918 114.233 481.669 114.661C484.045 114.88 486.42 115.129 488.799 115.495C489.989 115.672 491.18 115.893 492.377 116.169C493.687 116.416 494.941 116.899 496.075 117.595C496.229 117.697 496.348 117.842 496.418 118.011C496.487 118.181 496.504 118.367 496.466 118.546L496.452 118.612L488.148 157.428L483.976 176.833C482.62 183.286 481.165 189.811 480.076 196.223L480.069 196.265C480.039 196.438 479.951 196.596 479.82 196.713C479.688 196.831 479.52 196.901 479.343 196.913C462.505 197.986 445.669 199.313 428.881 201.022C420.489 201.9 412.106 202.872 403.767 204.113C399.599 204.739 395.44 205.429 391.325 206.295C389.268 206.733 387.222 207.216 385.216 207.809C384.217 208.098 383.233 208.438 382.269 208.828C381.328 209.175 380.454 209.68 379.687 210.32L379.672 210.333L379.635 210.365C378.845 210.949 378.256 211.759 377.944 212.684C377.62 213.638 377.454 214.638 377.455 215.644C377.462 217.698 377.785 219.739 378.412 221.698L377.754 221.655C378.748 219.677 380.452 218.137 382.533 217.336C383.606 217.044 384.733 217.007 385.823 217.228C386.913 217.449 387.936 217.921 388.806 218.607C390.537 219.873 392.068 221.386 393.352 223.096C394.651 224.743 395.995 226.357 397.35 227.964C398.705 229.572 400.074 231.171 401.404 232.809C402.786 234.43 404.008 236.178 405.053 238.03C405.669 239.012 405.875 240.193 405.628 241.323C405.401 241.9 404.967 242.373 404.409 242.651C403.903 242.906 403.363 243.087 402.805 243.187C400.669 243.489 398.503 243.509 396.363 243.247L396.769 242.739C398.389 247.208 400.622 251.435 403.405 255.303C404.78 257.217 406.425 258.928 408.288 260.383C410.1 261.839 412.321 262.706 414.65 262.867C419.39 263.018 424.251 262.633 429.054 262.334C433.869 262.006 438.684 261.617 443.496 261.207C462.742 259.518 481.98 257.694 501.208 255.733L530.052 252.837C532.438 252.55 534.911 252.44 537.151 251.971C539.441 251.479 541.654 250.686 543.731 249.614C547.924 247.535 551.207 244.015 552.967 239.714C554.522 235.307 554.856 230.569 553.936 225.991C553.528 223.668 552.956 221.376 552.225 219.132C551.485 216.929 550.403 214.852 549.019 212.977C546.244 209.134 542.884 205.739 539.058 202.912C535.227 200.056 531.12 197.581 526.797 195.523L526.835 195.539L482.713 178.47L482.749 178.476L482.739 178.476C482.712 178.476 482.686 178.465 482.667 178.446C482.648 178.428 482.637 178.402 482.637 178.375C482.637 178.348 482.648 178.323 482.667 178.304C482.686 178.285 482.712 178.274 482.739 178.274L482.739 178.274Z" fill="black"/>
<path d="M383.09 115.373C375.657 123.731 372.124 222.825 372.124 222.825H379.191C379.191 222.825 376.236 214.124 380.511 211.056C388.279 203.101 479.962 197.136 479.962 197.136C480.165 195.39 481.536 188.445 483.404 179.37C488.136 156.265 496.046 119.371 496.046 119.371C488.004 113.193 383.09 115.373 383.09 115.373ZM434.999 160.797C426.114 160.797 418.915 158.677 418.915 156.073C418.915 153.469 426.114 151.349 434.999 151.349C443.884 151.349 451.083 153.469 451.083 156.073C451.083 158.677 443.884 160.797 434.999 160.797V160.797ZM280.64 223.661C279.463 230.621 278.846 237.663 278.796 244.72C278.685 251.756 279.363 258.781 280.816 265.667C282.369 272.461 285.063 279.173 289.8 284.261C292.217 286.755 295.021 288.848 298.104 290.461L300.407 291.734C301.179 292.151 301.991 292.504 302.781 292.892C304.366 293.661 305.956 294.42 307.594 295.087C314.083 297.881 320.751 300.295 327.482 302.515C334.208 304.754 340.998 306.808 347.811 308.79C361.429 312.804 375.178 316.301 388.966 319.798C392.496 320.732 395.803 322.358 398.691 324.581C401.58 326.804 403.992 329.579 405.785 332.742C406.671 334.318 407.404 335.973 407.976 337.686C408.498 339.402 408.892 341.154 409.154 342.928L410.903 353.384C413.309 367.313 415.638 381.255 418.139 395.167L433.164 478.637L432.46 478.032C442.948 478.183 453.464 478.045 463.932 477.488C469.166 477.211 474.394 476.819 479.567 476.142C482.14 475.815 484.695 475.355 487.221 474.766C488.458 474.476 489.675 474.107 490.865 473.663C491.964 473.283 492.976 472.69 493.843 471.919L493.585 472.621C492.838 454.746 491.943 436.869 491.012 418.999C490.068 401.128 488.902 383.271 487.724 365.416C486.492 347.566 485.08 329.724 483.137 311.94C482.164 303.049 481.022 294.177 479.59 285.353C478.861 280.944 478.053 276.545 476.967 272.213C476.443 270.045 475.787 267.91 475.005 265.821C474.614 264.781 474.134 263.776 473.571 262.817C473.334 262.327 473.002 261.888 472.595 261.526C472.187 261.163 471.712 260.884 471.195 260.704L471.187 260.703C471.161 260.697 471.138 260.682 471.123 260.66C471.108 260.638 471.103 260.61 471.108 260.584C471.113 260.558 471.128 260.535 471.151 260.52C471.173 260.505 471.2 260.5 471.226 260.505C471.78 260.677 472.293 260.957 472.736 261.329C473.179 261.701 473.543 262.157 473.807 262.67C474.402 263.631 474.913 264.641 475.334 265.69C476.171 267.777 476.88 269.913 477.457 272.085C478.648 276.415 479.558 280.81 480.389 285.214C482.031 294.03 483.212 302.916 484.316 311.805C486.477 329.591 488.108 347.431 489.557 365.281C491.037 383.13 492.099 401.008 493.117 418.885C494.135 436.764 494.957 454.652 495.582 472.549L495.583 472.581C495.588 472.704 495.567 472.827 495.522 472.942C495.478 473.057 495.411 473.163 495.324 473.251C494.251 474.254 492.975 475.018 491.583 475.494C490.309 475.964 489.007 476.352 487.683 476.655C485.087 477.248 482.461 477.706 479.816 478.029C474.559 478.689 469.291 479.054 464.023 479.305C453.485 479.751 442.957 479.764 432.421 479.493C432.251 479.488 432.088 479.426 431.959 479.316C431.831 479.205 431.745 479.054 431.716 478.888L417.477 395.282C415.1 381.348 412.552 367.444 410.08 353.527L408.171 343.098C407.891 341.379 407.484 339.683 406.951 338.024C406.378 336.39 405.65 334.813 404.778 333.315C403.028 330.329 400.695 327.721 397.916 325.644C395.137 323.567 391.968 322.063 388.596 321.221C374.769 317.996 360.973 314.451 347.304 310.517C340.461 308.567 333.677 306.411 326.929 304.141C320.182 301.872 313.491 299.408 306.95 296.546C305.302 295.864 303.692 295.085 302.087 294.295C301.287 293.896 300.47 293.534 299.683 293.104L297.335 291.788C294.126 290.084 291.225 287.862 288.748 285.214C283.847 279.785 281.207 272.835 279.722 265.906C278.328 258.93 277.777 251.813 278.081 244.707C278.302 237.627 279.092 230.576 280.441 223.621C280.446 223.595 280.462 223.572 280.484 223.557C280.506 223.542 280.534 223.537 280.56 223.542C280.586 223.548 280.609 223.564 280.624 223.586C280.639 223.608 280.645 223.635 280.64 223.661V223.661ZM448.89 491.663C448.89 491.663 440.117 490.754 440.117 494.933C440.117 499.112 440.848 529.637 444.503 530.546C448.159 531.454 555.266 568.156 583.779 538.358C583.779 538.358 603.519 527.457 566.232 514.738C528.946 502.019 505.551 489.301 505.551 489.301C505.551 489.301 470.092 490.391 469.361 494.025C468.63 497.659 474.113 510.741 474.113 510.741C474.113 510.741 450.718 516.192 448.89 491.663Z" fill="black"/>
<path d="M448.726 492C448.683 492 448.641 491.994 448.599 491.984C448.467 491.949 448.355 491.863 448.285 491.744C448.216 491.625 448.196 491.483 448.23 491.35C448.717 489.185 448.779 486.945 448.412 484.757C448.045 482.568 447.257 480.475 446.092 478.596C446.054 478.54 446.027 478.476 446.012 478.41C445.998 478.343 445.996 478.274 446.008 478.207C446.02 478.14 446.044 478.075 446.08 478.018C446.117 477.96 446.164 477.911 446.219 477.871C446.274 477.832 446.336 477.805 446.402 477.79C446.468 477.775 446.536 477.774 446.602 477.786C446.668 477.797 446.731 477.823 446.788 477.859C446.845 477.896 446.894 477.944 446.932 478C448.196 479.995 449.051 482.229 449.444 484.568C449.838 486.906 449.762 489.301 449.223 491.609C449.194 491.721 449.13 491.82 449.04 491.891C448.95 491.962 448.84 492 448.726 492ZM501.488 489.565L501.47 489.563C490.316 489.186 479.412 477.376 478.953 476.874C478.908 476.824 478.872 476.765 478.849 476.701C478.825 476.637 478.814 476.569 478.817 476.501C478.819 476.433 478.835 476.366 478.863 476.304C478.891 476.241 478.931 476.185 478.98 476.139C479.03 476.093 479.088 476.056 479.151 476.033C479.214 476.009 479.281 475.998 479.348 476C479.415 476.003 479.481 476.019 479.543 476.047C479.604 476.076 479.659 476.116 479.705 476.166C479.814 476.287 490.781 488.161 501.505 488.525C501.639 488.53 501.766 488.588 501.859 488.687C501.952 488.785 502.002 488.917 502 489.054C501.998 489.19 501.943 489.32 501.847 489.416C501.751 489.511 501.622 489.565 501.488 489.565V489.565Z" fill="black"/>
<path d="M245.311 218.118C245.236 218.104 245.163 218.104 245.089 218.089L245 218C245.106 218.033 245.21 218.073 245.311 218.118V218.118ZM277.532 253.075V253.164C277.577 252.898 277.621 252.646 277.666 252.379C277.621 252.616 277.577 252.838 277.532 253.075ZM481 291.926V291.956C480.941 291.97 480.896 291.985 480.837 292C480.896 291.97 480.941 291.956 481 291.926Z" fill="white"/>
<path d="M230.307 302.142L232.055 332.434L233.649 362.731C234.193 372.829 234.913 382.922 235.091 393.033C235.17 398.09 235.248 403.146 235.194 408.207L235.109 415.799C235.019 418.332 234.987 420.863 234.846 423.397C234.844 423.435 234.828 423.471 234.801 423.497C234.773 423.524 234.737 423.539 234.698 423.541C234.66 423.542 234.622 423.529 234.593 423.505C234.564 423.48 234.545 423.446 234.54 423.409C234.21 420.891 233.989 418.369 233.71 415.85L233.057 408.285C232.625 403.241 232.325 398.193 232.026 393.145C231.446 383.048 231.41 372.931 231.197 362.82L230.522 332.49L230 302.153C229.999 302.114 230.015 302.076 230.042 302.047C230.07 302.018 230.108 302.002 230.148 302C230.188 301.999 230.227 302.013 230.257 302.039C230.286 302.066 230.304 302.103 230.307 302.142V302.142ZM313.863 359.45L314.722 390.298L315.427 421.147C315.675 431.43 316.099 441.711 315.979 451.997C315.91 457.14 315.84 462.283 315.638 467.427L315.329 475.143C315.166 477.716 315.059 480.288 314.845 482.861C314.841 482.898 314.824 482.934 314.796 482.959C314.768 482.985 314.731 483 314.692 483C314.654 483 314.617 482.986 314.588 482.961C314.559 482.936 314.541 482.901 314.538 482.863C314.282 480.294 314.135 477.724 313.93 475.154L313.499 467.444C313.215 462.303 313.064 457.162 312.912 452.021C312.629 441.738 312.89 431.451 312.973 421.166L313.188 390.31L313.556 359.452C313.557 359.412 313.573 359.375 313.601 359.347C313.63 359.319 313.668 359.303 313.708 359.303C313.748 359.303 313.787 359.318 313.816 359.345C313.845 359.373 313.862 359.41 313.863 359.45L313.863 359.45Z" fill="black"/>
<path d="M234.5 424C241.404 424 247 422.881 247 421.5C247 420.119 241.404 419 234.5 419C227.596 419 222 420.119 222 421.5C222 422.881 227.596 424 234.5 424Z" fill="black"/>
<path d="M314.5 483C321.956 483 328 481.881 328 480.5C328 479.119 321.956 478 314.5 478C307.044 478 301 479.119 301 480.5C301 481.881 307.044 483 314.5 483Z" fill="black"/>
<path d="M400.386 339.755L401.522 353.993L402.506 368.237C402.814 372.986 403.385 377.725 403.338 382.486C403.372 387.27 403.091 392.051 402.495 396.798C402.49 396.833 402.472 396.867 402.445 396.891C402.418 396.915 402.384 396.929 402.347 396.931C402.311 396.932 402.275 396.921 402.246 396.898C402.218 396.876 402.198 396.844 402.19 396.809C401.245 392.119 400.611 387.372 400.293 382.598C399.894 377.853 400.114 373.085 400.07 368.327L400 354.049L400.082 339.766C400.082 339.727 400.097 339.689 400.125 339.661C400.152 339.633 400.189 339.616 400.229 339.615C400.268 339.613 400.306 339.627 400.336 339.653C400.365 339.679 400.383 339.716 400.386 339.755ZM513.885 307.148L514.736 337.821L515.434 368.496C515.678 378.72 516.099 388.944 515.979 399.171C515.91 404.285 515.84 409.399 515.638 414.514L515.332 422.186C515.169 424.744 515.063 427.302 514.849 429.86C514.846 429.898 514.829 429.933 514.801 429.959C514.773 429.985 514.736 430 514.698 430C514.66 430 514.623 429.986 514.594 429.961C514.566 429.935 514.548 429.9 514.545 429.862C514.291 427.308 514.145 424.752 513.942 422.197L513.514 414.53C513.233 409.419 513.083 404.307 512.932 399.195C512.653 388.971 512.912 378.742 512.996 368.515L513.213 337.833L513.581 307.15C513.581 307.111 513.597 307.073 513.626 307.044C513.654 307.016 513.692 307 513.732 307C513.772 307 513.81 307.015 513.839 307.043C513.868 307.07 513.884 307.108 513.885 307.148V307.148Z" fill="black"/>
<path d="M402 397C409.18 397 415 395.881 415 394.5C415 393.119 409.18 392 402 392C394.82 392 389 393.119 389 394.5C389 395.881 394.82 397 402 397Z" fill="black"/>
<path d="M514.5 430C521.404 430 527 428.881 527 427.5C527 426.119 521.404 425 514.5 425C507.596 425 502 426.119 502 427.5C502 428.881 507.596 430 514.5 430Z" fill="black"/>
<path d="M378.499 223H371.501C371.368 222.999 371.24 222.946 371.147 222.853C371.053 222.759 371 222.632 371 222.5C371 222.368 371.053 222.241 371.147 222.147C371.24 222.054 371.368 222.001 371.501 222H378.499C378.632 222.001 378.76 222.054 378.853 222.147C378.947 222.241 379 222.368 379 222.5C379 222.632 378.947 222.759 378.853 222.853C378.76 222.946 378.632 222.999 378.499 223V223Z" fill="black"/>
</svg>
